<svg width="11" height="18" viewBox="0 0 11 18" fill="none" xmlns="http://www.w3.org/2000/svg">
<path d="M7.54405 8.71295L3.67198 4.67798C2.90598 3.87798 2.12605 3.09495 1.37705 2.27795C1.20673 2.13723 1.08092 1.95005 1.01512 1.73914C0.949315 1.52822 0.946354 1.3027 1.00645 1.09009C1.06654 0.877479 1.18714 0.686948 1.35362 0.541687C1.52009 0.396427 1.72516 0.302712 1.94395 0.271973C2.14315 0.257618 2.34322 0.283547 2.5322 0.348145C2.72119 0.412743 2.89531 0.514725 3.04405 0.648011C5.37905 3.03001 7.67901 5.44798 9.97801 7.86298C10.1059 7.97751 10.2071 8.11868 10.2745 8.27655C10.342 8.43442 10.3741 8.60515 10.3685 8.77673C10.3629 8.94832 10.3197 9.1166 10.242 9.26971C10.1644 9.42283 10.0542 9.55705 9.91905 9.66296C7.65238 12.039 5.38034 14.413 3.10301 16.785C3.00379 16.9174 2.87775 17.0275 2.73313 17.1079C2.58851 17.1884 2.42851 17.2374 2.26365 17.2518C2.09879 17.2663 1.93275 17.2458 1.77635 17.1917C1.61994 17.1376 1.47679 17.0512 1.35606 16.938C1.237 16.8228 1.1428 16.6843 1.07945 16.5312C1.01609 16.3781 0.984837 16.2136 0.987649 16.048C0.990462 15.8823 1.02729 15.719 1.0958 15.5681C1.16432 15.4173 1.26306 15.2821 1.38596 15.171C2.04696 14.456 2.73196 13.761 3.40696 13.059L7.24998 9.05896C7.34198 8.96196 7.42105 8.85795 7.54405 8.71295Z" fill="#242B4C"/>
</svg>
