<svg width="25" height="24" viewBox="0 0 25 24" fill="none" xmlns="http://www.w3.org/2000/svg">
<path d="M13.897 22.175L12.714 23.358C12.5956 23.4771 12.4548 23.5716 12.2998 23.6361C12.1447 23.7006 11.9784 23.7338 11.8105 23.7338C11.6426 23.7338 11.4763 23.7006 11.3212 23.6361C11.1662 23.5716 11.0254 23.4771 10.907 23.358L0.543006 13.001C0.423909 12.8826 0.329396 12.7418 0.264902 12.5868C0.200408 12.4317 0.167206 12.2654 0.167206 12.0975C0.167206 11.9296 0.200408 11.7633 0.264902 11.6082C0.329396 11.4532 0.423909 11.3124 0.543006 11.194L10.906 0.831C11.0244 0.711903 11.1652 0.61739 11.3202 0.552896C11.4753 0.488402 11.6416 0.4552 11.8095 0.4552C11.9774 0.4552 12.1437 0.488402 12.2988 0.552896C12.4538 0.61739 12.5946 0.711903 12.713 0.831L13.896 2.014C14.016 2.13491 14.1106 2.27853 14.1744 2.43645C14.2382 2.59438 14.2699 2.76344 14.2675 2.93375C14.2652 3.10406 14.2289 3.27219 14.1609 3.42831C14.0928 3.58444 13.9942 3.72541 13.871 3.843L7.44701 9.963H22.771C22.9391 9.9626 23.1056 9.99542 23.2609 10.0596C23.4163 10.1237 23.5574 10.2179 23.6763 10.3367C23.7951 10.4556 23.8893 10.5967 23.9535 10.7521C24.0176 10.9074 24.0504 11.0739 24.05 11.242V12.948C24.0504 13.1161 24.0176 13.2826 23.9535 13.4379C23.8893 13.5933 23.7951 13.7344 23.6763 13.8533C23.5574 13.9721 23.4163 14.0663 23.2609 14.1304C23.1056 14.1946 22.9391 14.2274 22.771 14.227H7.45201L13.876 20.347C13.9999 20.4642 14.099 20.6051 14.1674 20.7614C14.2357 20.9176 14.2719 21.086 14.2739 21.2565C14.2759 21.4271 14.2435 21.5963 14.1788 21.7541C14.114 21.9118 14.0182 22.055 13.897 22.175Z" fill="black"/>
</svg>
