<svg width="8" height="13" viewBox="0 0 8 13" fill="none" xmlns="http://www.w3.org/2000/svg">
<path d="M5.26096 6.45897L2.36106 3.43993C1.78806 2.83993 1.20402 2.25499 0.644015 1.64599C0.516783 1.54069 0.422872 1.40065 0.373752 1.24297C0.324632 1.08529 0.322359 0.916726 0.367282 0.757802C0.412204 0.598877 0.502407 0.456459 0.626803 0.347828C0.7512 0.239198 0.904438 0.169091 1.06797 0.145985C1.21715 0.135049 1.36706 0.154284 1.50864 0.202565C1.65022 0.250845 1.78065 0.327124 1.89206 0.42693C3.63906 2.20893 5.36005 4.01695 7.08005 5.82695C7.17545 5.91263 7.25093 6.01815 7.30124 6.1361C7.35155 6.25404 7.37538 6.38154 7.37119 6.50969C7.367 6.63785 7.33486 6.76358 7.27695 6.87798C7.21904 6.99238 7.13678 7.09267 7.03598 7.17193C5.33798 8.94926 3.63801 10.7253 1.93601 12.4999C1.8618 12.5991 1.76749 12.6814 1.65927 12.7416C1.55106 12.8018 1.43132 12.8385 1.30796 12.8492C1.18459 12.86 1.06034 12.8446 0.943332 12.8041C0.826328 12.7635 0.719252 12.6987 0.629001 12.6139C0.539254 12.5281 0.468307 12.4246 0.420505 12.31C0.372702 12.1954 0.34913 12.0721 0.351291 11.9479C0.353451 11.8238 0.381195 11.7014 0.432956 11.5885C0.484717 11.4756 0.559272 11.3747 0.65195 11.292C1.14695 10.757 1.65903 10.237 2.16403 9.71196L5.03903 6.71795C5.10503 6.64495 5.16096 6.56697 5.26096 6.45897Z" fill="#FFFFFE"/>
</svg>
