<svg width="124" height="110" viewBox="0 0 124 110" fill="none" xmlns="http://www.w3.org/2000/svg">
<g clip-path="url(#clip0_275_1003)">
<path d="M81.3585 102.891C104.244 91.5682 167.871 54.5952 168.972 53.6608C170.081 52.7263 175.961 49.3156 167.542 44.6667C157.212 38.9666 114.667 26.7409 101.323 32.8771C87.9879 39.0211 11.5613 78.6027 10.0091 79.545C8.45688 80.4872 -4.65684 86.748 1.75091 92.16C7.3099 97.3384 22.7023 104.253 31.1516 106.753C47.7216 111.659 64.0239 111.456 81.3585 102.883V102.891Z" fill="black" fill-opacity="0.1"/>
<path fill-rule="evenodd" clip-rule="evenodd" d="M86.9633 75.7759C86.5963 77.637 86.0075 79.5527 85.1893 81.4683C84.3023 83.5396 83.2318 85.4163 82.0466 87.0516L77.6117 97.2137L69.3535 93.4136C69.2923 93.3903 69.2311 93.3669 69.1776 93.3358C64.0927 91.0775 63.0145 82.0912 66.7766 73.2763C70.531 64.4613 77.7034 59.1428 82.7883 61.401C82.8419 61.4244 82.8954 61.4477 82.9489 61.4711L91.49 65.3958L86.9633 75.7682V75.7759Z" fill="black"/>
<path d="M93.6526 85.3386C97.3977 76.5251 96.3053 67.5609 91.2126 65.3165C86.1199 63.0722 78.9555 68.3977 75.2103 77.2112C71.4652 86.0248 72.5576 94.989 77.6503 97.2333C82.743 99.4776 89.9075 94.1522 93.6526 85.3386Z" fill="black"/>
<path d="M91.6344 84.3331C94.4437 77.722 93.6263 70.9987 89.8087 69.3163C85.9911 67.6339 80.619 71.6295 77.8098 78.2407C75.0005 84.8518 75.8179 91.5751 79.6355 93.2575C83.453 94.9399 88.8252 90.9443 91.6344 84.3331Z" fill="url(#paint0_linear_275_1003)"/>
<path fill-rule="evenodd" clip-rule="evenodd" d="M84.3555 77.8863C84.0496 78.1044 83.7514 78.3925 83.4685 78.7351L81.2357 74.8727C82.1839 73.658 83.2315 72.6846 84.302 72.0149L84.3631 77.8863H84.3555ZM84.4855 90.9219C83.0938 91.6149 81.6945 91.7629 80.4864 91.2256C80.3105 91.1477 80.1423 91.0543 79.9817 90.953L83.1397 85.2295C83.5373 85.3853 83.9732 85.3541 84.4243 85.175L84.4855 90.9141V90.9219ZM88.1558 87.7759L85.9612 83.9836C85.6248 84.3885 85.2654 84.7078 84.8984 84.9414L84.9519 90.6727C86.0683 90.0186 87.1617 89.0374 88.1558 87.7759ZM86.3742 77.4892C86.5118 77.5515 86.6341 77.6294 86.7488 77.7306L89.9374 71.9604C89.6468 71.7034 89.3257 71.4932 88.974 71.3374C87.7046 70.7767 86.2365 70.9636 84.776 71.7423L84.8372 77.5982C85.3801 77.3335 85.9154 77.2712 86.3818 77.4814L86.3742 77.4892ZM90.7326 83.1815L87.0088 82.2082C86.9935 82.2549 86.9706 82.3016 86.9553 82.3483C86.7641 82.8 86.5271 83.2205 86.2748 83.5865L88.4693 87.3788C89.2263 86.3509 89.9068 85.1594 90.4727 83.8434C90.5644 83.6254 90.6562 83.4074 90.7403 83.1893L90.7326 83.1815ZM82.505 80.3626C82.4821 80.4093 82.4668 80.4639 82.4439 80.5106L78.6818 79.5216C78.7812 79.2569 78.8806 78.9999 78.9953 78.7351C79.5382 77.458 80.2034 76.2978 80.9299 75.2855L83.1626 79.1478C82.9179 79.506 82.6885 79.9188 82.4974 80.3626H82.505ZM87.177 81.7565C87.3606 81.1958 87.4676 80.6352 87.4905 80.1212L91.8643 77.4814C91.8643 79.1089 91.5432 80.9077 90.9009 82.7377L87.177 81.7565ZM78.5136 79.9733C77.8407 81.9122 77.5501 83.8279 77.6036 85.5254L81.9621 82.8934C81.9621 82.2938 82.0615 81.6319 82.2756 80.9544L78.5136 79.9655V79.9733ZM79.5994 90.6727L82.7344 84.9959C82.3368 84.6611 82.0845 84.1082 81.9927 83.4307L77.6266 86.0627C77.7872 88.064 78.4524 89.7149 79.5994 90.6727ZM90.2815 72.303L87.07 78.1122C87.307 78.4859 87.4447 78.9843 87.4829 79.5528L91.849 76.9207C91.7726 74.9973 91.2373 73.3621 90.2815 72.303Z" fill="#4D4C4C"/>
<path fill-rule="evenodd" clip-rule="evenodd" d="M86.9478 75.6202C86.5808 77.4735 85.992 79.3813 85.1815 81.2892C84.3022 83.3527 83.2317 85.2294 82.0541 86.8569L77.6115 97.0424L69.3609 93.2423C69.2998 93.2189 69.2309 93.1878 69.1698 93.1644C64.0849 90.9062 63.0067 81.9199 66.7688 73.105C70.5308 64.29 77.6956 58.9715 82.7805 61.2297C82.834 61.2531 82.8876 61.2764 82.9411 61.3076L91.4746 65.2322L86.9402 75.628L86.9478 75.6202Z" fill="black"/>
<path d="M91.5435 64.6326C86.4585 62.3744 79.0797 68.1524 75.3253 76.9673C71.5708 85.7745 72.649 94.753 77.7339 97.0112C82.8188 99.2695 89.9836 93.9587 93.738 85.1516C97.4924 76.3444 96.6284 66.8909 91.5435 64.6326Z" fill="black"/>
<path d="M91.1823 83.9546C93.7262 77.5103 92.8566 71.0858 89.24 69.6052C85.6234 68.1247 80.6294 72.1486 78.0855 78.593C75.5417 85.0373 76.4113 91.4618 80.0279 92.9424C83.6445 94.423 88.6385 90.399 91.1823 83.9546Z" fill="url(#paint1_linear_275_1003)"/>
<path fill-rule="evenodd" clip-rule="evenodd" d="M86.6272 83.1112C85.8396 84.5674 84.7079 85.5252 83.7062 85.6186L81.8405 90.0806C84.2567 90.5167 87.3001 88.056 89.1199 84.1235L86.6272 83.1034V83.1112ZM87.193 81.7952C87.7359 80.1365 87.6671 78.5324 87.0477 77.6369L88.9135 73.1749C90.7868 74.8024 91.1233 78.7738 89.6628 82.8075L87.193 81.7952ZM79.9747 78.8439C81.8175 74.5376 85.1284 71.8511 87.6671 72.5052L85.8243 76.9127C84.6773 76.8582 83.3009 78.034 82.4522 79.8562L79.9824 78.8439H79.9747ZM82.391 85.1047L80.5482 89.5122C78.5907 88.0404 78.1472 84.1858 79.4624 80.1833L81.9552 81.2034C81.527 82.8231 81.6952 84.3415 82.391 85.1047Z" fill="#484747"/>
<path d="M37.7353 96.5362C50.7879 100.928 67.3654 92.6816 70.9822 90.8049C71.2728 90.6492 71.4563 90.3611 71.4792 90.0262C71.8998 84.9646 72.8556 80.0977 75.3407 75.6747C78.407 70.2082 84.9829 63.4412 90.2208 65.2245C96.1697 67.2491 95.8027 73.5332 95.711 75.6046C95.6498 76.8973 95.6039 77.3723 95.5733 78.735C95.558 79.4125 96.0856 79.7473 96.6897 79.4592L134.815 61.2842C135.09 61.1518 135.289 60.8949 135.327 60.5834C135.779 56.721 134.303 52.9209 138.134 45.9281C140.718 41.2092 144.205 37.9775 147.699 39.0599C151.194 40.1345 152.394 45.2117 152.547 46.4031C152.853 48.0774 152.876 49.1753 152.777 50.0708C152.823 50.577 155.835 46.4888 156.141 44.8146C157.074 39.714 157.227 37.2845 156.661 32.1217C156.569 31.2807 156.248 29.1704 156.003 28.3216C155.965 28.1892 155.942 28.0412 155.95 27.9011C156.034 26.1256 155.705 23.5325 155.216 22.4346C154.665 21.1886 152.899 16.2516 149.512 15.5508C143.364 9.62485 122.175 2.75666 120.141 2.63985C119.323 2.59313 117.175 1.98574 116.983 1.88451C115.951 1.31605 111.103 0.0156153 109.566 4.11754e-05C98.0202 -0.0934035 79.7145 5.01491 68.1989 11.3536C60.5448 15.5664 46.7505 30.2761 44.0284 32.1139C27.3055 43.3973 17.8544 47.7114 13.8783 51.784C9.13745 58.5899 10.4221 61.0194 10.3991 62.2498C10.3303 62.9351 8.7169 74.6779 11.8978 79.9576C12.7007 80.7752 10.4832 87.3631 37.7506 96.5362H37.7353Z" fill="url(#paint2_linear_275_1003)"/>
<path d="M49.2586 35.5636C47.6911 34.2788 44.8084 32.1685 45.2289 31.8726C47.8899 30.0114 50.0615 27.3561 54.9017 22.8474C66.0044 12.4828 67.9696 12.1713 68.176 12.1791C68.1913 12.1791 68.2066 12.1791 68.2143 12.1869L102.86 26.0712C103.174 26.1958 103.258 26.6007 103.029 26.8499C94.3041 36.3657 91.1155 44.4487 85.3194 46.9561C76.7401 50.6783 54.2594 39.6674 49.2586 35.5558V35.5636Z" fill="url(#paint3_linear_275_1003)"/>
<path d="M106.967 27.8076C104 32.0671 95.3056 42.5096 93.4322 46.1617C91.9106 49.1208 140.458 23.7194 141.865 22.9095C144.74 21.2509 150.781 19.5611 148.77 18.3307C146.759 17.1004 140.328 13.7831 136.681 13.8142C130.801 13.8765 129.432 14.5307 125.402 15.8622C121.372 17.2016 111.906 20.698 106.967 27.7998V27.8076Z" fill="url(#paint4_linear_275_1003)"/>
<path d="M45.0529 71.0881C33.9884 70.4418 30.6469 69.0635 29.7294 67.8876C28.9953 66.9454 75.1801 51.8463 97.2402 44.9314C89.8766 51.7061 83.0177 59.1116 70.7374 65.0765C69.3305 65.7618 55.9415 71.7267 45.0529 71.0881Z" fill="url(#paint5_linear_275_1003)" fill-opacity="0.21"/>
<path d="M112.61 41.7309C112.61 42.0813 112.977 42.3149 113.29 42.1514L117.419 40.0644C117.58 39.9788 117.679 39.8152 117.679 39.6283V39.0054C117.672 38.655 117.305 38.4213 116.991 38.5849L112.862 40.6796C112.701 40.7653 112.602 40.9288 112.602 41.1157V41.7309H112.61Z" fill="#323333"/>
<path d="M73.7423 46.6913C79.546 48.5758 83.6063 47.6258 86.2061 46.5589C89.4711 45.2196 92.8356 39.753 97.2705 33.866C100.352 29.7778 100.65 29.4274 101.897 28.1659C102.883 27.0056 103.365 26.7253 103.128 26.2892C103.128 26.2892 103.281 26.1724 101.461 25.4949C100.062 24.9732 92.1703 21.8039 88.9588 20.4879L61.1868 42.206C65.4612 43.997 70.7984 45.9749 73.7423 46.6757V46.6913Z" fill="black"/>
<path d="M40.6943 75.8149C39.8456 73.432 39.5015 72.0615 39.5015 72.0615C40.8243 72.155 41.2372 72.0927 42.0477 72.0771C43.0265 72.0537 44.0205 71.9914 45.0452 71.8746C52.554 71.0414 59.2294 68.7676 62.5786 67.693C63.2132 67.4905 63.7026 68.02 63.3738 68.6041C62.395 70.3639 56.9737 77.1153 55.8573 77.4268C53.0969 78.2055 45.9322 78.3613 41.6501 78.7117C41.6501 78.7117 41.2678 77.3645 40.6867 75.8227L40.6943 75.8149Z" fill="#211F1F"/>
<path d="M10.0471 58.5743C11.2017 55.8956 13.4269 52.2045 12.7769 54.1123C12.7463 54.2058 12.7234 54.307 12.7081 54.4082C12.4634 56.9235 12.6393 57.8345 14.268 59.8202C13.9621 61.7982 13.6257 63.3789 13.3733 64.181L10.5594 63.122C10.3912 62.2498 10.3224 61.6891 10.2995 61.4945C10.2 60.6145 10.0471 58.5743 10.0471 58.5743Z" fill="#211F1F"/>
<path d="M42.1167 72.1159C42.1167 72.1159 28.5519 73.2217 14.1765 59.7111L12.9148 60.7779C12.9148 60.7779 22.4423 73.1672 41.1915 75.5811C42.1932 75.7135 42.1167 72.1081 42.1167 72.1081V72.1159Z" fill="#211F1F"/>
<path d="M114.529 11.7195L106.431 15.4573C106.309 15.5118 106.171 15.5196 106.041 15.4728L89.5552 9.14195C89.127 8.97842 89.1117 8.36324 89.5399 8.17635L97.1788 4.92136C97.2935 4.87464 97.4234 4.86685 97.5381 4.90579L114.49 10.7539C114.926 10.9018 114.957 11.5248 114.536 11.7195H114.529Z" fill="white"/>
<path d="M97.6454 75.2776L133.11 58.2628C132.98 55.7788 133.24 48.3032 136.612 44.2228L92.637 63.597C94.281 64.2667 98.8994 68.1291 97.6378 75.2854L97.6454 75.2776Z" fill="url(#paint6_linear_275_1003)"/>
<path d="M112.335 48.56L104.497 51.9863C103.664 52.3523 102.991 53.4036 102.991 54.3458V63.153C102.991 64.0874 103.664 64.5858 104.497 64.2665L112.335 61.2763C113.168 60.957 113.841 59.9058 113.841 58.9246V49.6892C113.841 48.708 113.168 48.2018 112.335 48.5678V48.56Z" fill="url(#paint7_linear_275_1003)"/>
<path d="M112.335 61.3698L104.497 64.36C103.618 64.6948 102.899 64.1653 102.899 63.1764V54.377C102.899 53.388 103.618 52.2667 104.497 51.8851L112.335 48.4588C113.214 48.0773 113.933 48.6068 113.933 49.6424V58.8779C113.933 59.9136 113.214 61.0349 112.335 61.3698ZM104.497 52.0798C103.709 52.4224 103.075 53.4192 103.075 54.2991V63.1063C103.075 63.9862 103.709 64.4612 104.497 64.1575L112.335 61.1595C113.122 60.8636 113.757 59.8669 113.757 58.9402V49.7125C113.757 48.7859 113.122 48.3109 112.335 48.6535L104.497 52.072V52.0798Z" fill="#C5D01C"/>
<path d="M105.744 60.2639L105.614 60.3184L105.315 61.6812L105.445 61.6344L105.744 60.2639Z" fill="#C5D01C"/>
<path d="M105.965 60.1782L105.881 60.2094L105.575 61.5799L105.659 61.5487L105.965 60.1782Z" fill="#C5D01C"/>
<path d="M106.11 60.1237L106.057 60.1392L105.758 61.5098L105.812 61.4864L106.11 60.1237Z" fill="#C5D01C"/>
<path d="M104.673 60.6922L104.214 60.8791L103.916 62.234L104.375 62.0549L104.673 60.6922Z" fill="#C5D01C"/>
<path d="M105.139 60.5053L104.849 60.6221L104.551 61.9849L104.841 61.868L105.139 60.5053Z" fill="#C5D01C"/>
<path d="M105.491 60.3651L105.269 60.4507L104.964 61.8212L105.185 61.7356L105.491 60.3651Z" fill="#C5D01C"/>
<path d="M111.417 57.6864L111.769 57.5462L112.075 56.129L111.723 56.2691L111.417 57.6864Z" fill="#C5D01C"/>
<path d="M111.891 57.4995L112.418 57.2814L112.724 55.8642L112.197 56.0822L111.891 57.4995Z" fill="#C5D01C"/>
<path d="M111.073 57.8188L111.295 57.7331L111.608 56.3159L111.387 56.4093L111.073 57.8188Z" fill="#C5D01C"/>
<path d="M110.79 57.9354L110.966 57.8653L111.272 56.4559L111.104 56.5182L110.79 57.9354Z" fill="#C5D01C"/>
<path d="M110.583 58.0134L110.683 57.9745L110.989 56.565L110.889 56.6117L110.583 58.0134Z" fill="#C5D01C"/>
<path d="M110.415 58.0835L110.476 58.0601L110.782 56.6507L110.721 56.6741L110.415 58.0835Z" fill="#C5D01C"/>
<path d="M112.404 57.6241L112.335 57.9511L111.693 58.2003C111.616 58.2315 111.608 58.3016 111.608 58.3249C111.608 58.3716 111.639 58.4028 111.677 58.3872L112.021 58.2471C112.167 58.1925 112.266 58.2315 112.243 58.3405L112.136 58.8467C112.098 58.979 112.006 59.0569 111.899 59.1036L110.179 59.7733C110.11 59.8045 110.056 59.7344 110.079 59.6176L110.331 58.4339L111.249 58.0679L111.18 58.395L110.584 58.6286L110.538 58.8311L111.104 58.6053L111.035 58.9323L110.469 59.1581L110.431 59.3217C110.423 59.3684 110.431 59.3606 110.469 59.345L111.784 58.8311C111.838 58.8077 111.868 58.7532 111.868 58.6987C111.868 58.6987 111.868 58.613 111.792 58.6442L111.333 58.8233C111.234 58.8622 111.196 58.8233 111.211 58.7376L111.333 58.1614C111.364 58.029 111.448 57.9979 111.494 57.9823L112.388 57.6241H112.404Z" fill="white"/>
<path d="M110.086 58.5351C110.201 58.4962 110.186 58.6052 110.155 58.7454L110.063 59.197C110.033 59.2905 110.01 59.345 109.91 59.3761L109.796 59.4229L109.995 59.8511L109.689 59.968L109.475 59.5475L109.543 59.2282L109.788 59.127C109.872 59.0958 109.865 59.088 109.872 59.0413V58.9946C109.903 58.9011 109.872 58.9011 109.811 58.9323L109.36 59.1114L109.131 60.1782L108.756 60.3262L109.054 58.9401L109.811 58.6364L110.094 58.5274L110.086 58.5351Z" fill="white"/>
<path d="M108.634 59.742C108.756 59.6719 108.771 59.742 108.764 59.8043L108.664 60.2793C108.641 60.3806 108.588 60.3961 108.404 60.474L107.961 60.6453L108.037 60.3027L108.335 60.1859C108.404 60.1625 108.458 59.9523 108.374 59.9912L108.083 60.108L108.152 59.7887L108.45 59.6719C108.565 59.6252 108.557 59.4461 108.45 59.4928L108.029 59.6564L107.8 60.7154L107.487 60.84L107.785 59.4617L108.588 59.1424C108.786 59.0645 108.855 59.1268 108.832 59.2592L108.779 59.524C108.748 59.6564 108.71 59.7109 108.649 59.742H108.634Z" fill="white"/>
<path d="M107.632 59.5162L107.334 60.8945L107.005 61.0269L107.303 59.6486L107.632 59.5162Z" fill="white"/>
<path d="M106.967 60.7233L106.89 61.0659L106.187 61.3385C106.019 61.4007 105.988 61.3774 106.057 61.1048L106.286 60.0458L106.63 59.9056L106.531 60.3729L106.439 60.8012C106.409 60.918 106.455 60.9257 106.577 60.879L106.959 60.7311L106.967 60.7233Z" fill="white"/>
<path fill-rule="evenodd" clip-rule="evenodd" d="M108.817 57.445L108.519 58.8388L109.001 58.6442L109.299 57.2503L108.817 57.445ZM107.93 58.0991L108.282 57.6552L108.733 57.4683L108.045 58.3249L108.343 58.9011L107.793 59.1192L107.647 58.8311L107.242 59.345L106.791 59.5241L107.533 58.5975L107.257 58.0757L107.808 57.8499L107.938 58.0991H107.93ZM104.589 59.1503L104.512 59.5008L104.833 59.3684L104.604 60.3885L105.047 60.2094L105.269 59.1893L105.621 59.0491L105.697 58.6987L104.581 59.1503H104.589ZM106.156 58.5118L106.653 58.3093L106.714 59.5475L106.217 59.7422V59.5163L105.782 59.6954L105.621 59.9835L105.254 60.1315L106.156 58.5118ZM106.21 59.2516V58.8856L105.95 59.3528L106.21 59.2438V59.2516ZM109.567 57.1335L110.53 56.7441C110.568 56.7286 110.591 56.7286 110.576 56.7831L110.53 57.0167C110.522 57.0634 110.499 57.0945 110.454 57.1023L109.842 57.3515C109.796 57.3671 109.765 57.4216 109.765 57.4528C109.765 57.4839 109.788 57.5228 109.819 57.5073L110.278 57.3204C110.385 57.2736 110.476 57.2659 110.438 57.4138L110.308 58.0056C110.293 58.0757 110.278 58.1147 110.232 58.138L109.161 58.5663C109.161 58.5663 109.123 58.5663 109.131 58.5352L109.192 58.2782C109.192 58.2392 109.222 58.2315 109.245 58.2237L109.903 57.9589C109.903 57.9589 109.972 57.9122 109.972 57.8499C109.972 57.8032 109.949 57.7798 109.911 57.7954L109.452 57.9823C109.406 57.9978 109.375 58.0056 109.352 57.9823C109.329 57.9667 109.322 57.92 109.352 57.8421L109.482 57.2269C109.498 57.1802 109.528 57.1491 109.574 57.1335H109.567Z" fill="white"/>
<path fill-rule="evenodd" clip-rule="evenodd" d="M106.875 52.983L106.623 54.1433L107.671 53.6994L106.929 57.0868L108.382 56.495L109.116 53.092L110.27 52.6014L110.523 51.4256L106.875 52.983Z" fill="#C5D01C"/>
<path style="mix-blend-mode:multiply" opacity="0.5" d="M107.792 53.1622C108.932 52.5704 110.339 51.231 110.652 50.3744C110.354 48.817 109.016 48.2174 107.471 49.0506C105.973 49.8605 104.787 51.8228 104.757 53.5126C105.277 53.9409 106.653 53.7618 107.792 53.17V53.1622Z" fill="url(#paint8_linear_275_1003)"/>
<path style="mix-blend-mode:multiply" opacity="0.5" d="M108.282 53.7619C107.9 55.1635 107.907 56.9312 108.343 57.375C109.796 57.157 111.279 55.6307 111.799 53.7151C112.304 51.8462 111.623 50.2655 110.285 50.1019C109.551 50.7015 108.664 52.3602 108.282 53.7619Z" fill="url(#paint9_linear_275_1003)"/>
<path style="mix-blend-mode:multiply" opacity="0.5" d="M104.918 55.3037C105.461 56.3783 106.676 57.2426 107.441 57.0246C108.825 55.4438 109.368 53.1544 108.634 51.6827C107.915 50.2654 106.141 50.2187 104.597 51.5192C104.207 52.5548 104.382 54.2446 104.925 55.3037H104.918Z" fill="url(#paint10_linear_275_1003)"/>
<path d="M121.449 55.2259L132.315 49.6036C132.559 49.4556 132.72 49.1364 132.72 48.7782V41.1391C132.72 40.4772 132.192 40.0411 131.726 40.3136L120.86 45.9359C120.615 46.0839 120.455 46.4031 120.455 46.7613V54.4004C120.455 55.0623 120.982 55.4984 121.449 55.2259Z" fill="white"/>
</g>
<defs>
<linearGradient id="paint0_linear_275_1003" x1="77.2299" y1="98.5045" x2="83.4885" y2="86.6705" gradientUnits="userSpaceOnUse">
<stop stop-color="#3F3F3F"/>
<stop offset="1" stop-color="#5D5D5D"/>
</linearGradient>
<linearGradient id="paint1_linear_275_1003" x1="95.5282" y1="108.163" x2="100.538" y2="84.8608" gradientUnits="userSpaceOnUse">
<stop stop-color="#3F3F3F"/>
<stop offset="1" stop-color="#777676"/>
</linearGradient>
<linearGradient id="paint2_linear_275_1003" x1="98.6395" y1="71.8824" x2="48.3144" y2="5.52733" gradientUnits="userSpaceOnUse">
<stop stop-color="#CADC31"/>
<stop offset="0.63" stop-color="#B1C126"/>
<stop offset="1" stop-color="#A3B12C"/>
</linearGradient>
<linearGradient id="paint3_linear_275_1003" x1="35.5561" y1="-10.6915" x2="75.8038" y2="29.4184" gradientUnits="userSpaceOnUse">
<stop stop-color="#E8EAE8"/>
<stop offset="0.5" stop-color="#707072"/>
<stop offset="1" stop-color="#2F3133"/>
</linearGradient>
<linearGradient id="paint4_linear_275_1003" x1="104.374" y1="-9.73382" x2="119.134" y2="25.8442" gradientUnits="userSpaceOnUse">
<stop stop-color="#E8EAE8"/>
<stop offset="0.5" stop-color="#707072"/>
<stop offset="1" stop-color="#2F3133"/>
</linearGradient>
<linearGradient id="paint5_linear_275_1003" x1="68.6882" y1="71.4152" x2="63.0098" y2="55.6413" gradientUnits="userSpaceOnUse">
<stop stop-color="#ECEAEA"/>
<stop offset="1" stop-color="white" stop-opacity="0"/>
</linearGradient>
<linearGradient id="paint6_linear_275_1003" x1="118.899" y1="57.3405" x2="123.078" y2="68.4051" gradientUnits="userSpaceOnUse">
<stop stop-color="#C7D930"/>
<stop offset="1" stop-color="#99A820"/>
</linearGradient>
<linearGradient id="paint7_linear_275_1003" x1="108.412" y1="64.1731" x2="108.412" y2="46.2161" gradientUnits="userSpaceOnUse">
<stop stop-color="#232322"/>
<stop offset="1" stop-color="#343433"/>
</linearGradient>
<linearGradient id="paint8_linear_275_1003" x1="107.528" y1="49.4598" x2="107.888" y2="53.4768" gradientUnits="userSpaceOnUse">
<stop stop-color="white" stop-opacity="0"/>
<stop offset="1" stop-color="#C7C5C4"/>
</linearGradient>
<linearGradient id="paint9_linear_275_1003" x1="111.114" y1="54.8911" x2="108.453" y2="53.9851" gradientUnits="userSpaceOnUse">
<stop stop-color="white" stop-opacity="0"/>
<stop offset="1" stop-color="#C7C5C4"/>
</linearGradient>
<linearGradient id="paint10_linear_275_1003" x1="108.545" y1="53.0718" x2="104.809" y2="54.8452" gradientUnits="userSpaceOnUse">
<stop stop-color="white" stop-opacity="0"/>
<stop offset="1" stop-color="#C7C5C4"/>
</linearGradient>
<clipPath id="clip0_275_1003">
<rect width="172" height="110" fill="white"/>
</clipPath>
</defs>
</svg>
