<svg width="70" height="70" viewBox="0 0 70 70" fill="none" xmlns="http://www.w3.org/2000/svg">
<path d="M35 0.875C28.2507 0.875 21.653 2.8764 16.0412 6.6261C10.4294 10.3758 6.05547 15.7054 3.47263 21.9409C0.889786 28.1765 0.213997 35.0379 1.53072 41.6575C2.84744 48.2771 6.09753 54.3576 10.87 59.13C15.6425 63.9025 21.723 67.1526 28.3426 68.4693C34.9622 69.786 41.8236 69.1102 48.0591 66.5274C54.2946 63.9445 59.6242 59.5707 63.3739 53.9588C67.1236 48.347 69.125 41.7493 69.125 35C69.1155 25.9524 65.5171 17.2781 59.1195 10.8805C52.7219 4.48292 44.0476 0.884554 35 0.875ZM47.3572 43.6428C47.6011 43.8867 47.7946 44.1762 47.9265 44.4949C48.0585 44.8136 48.1265 45.1551 48.1265 45.5C48.1265 45.8449 48.0585 46.1864 47.9265 46.5051C47.7946 46.8238 47.6011 47.1133 47.3572 47.3572C47.1133 47.6011 46.8238 47.7945 46.5051 47.9265C46.1865 48.0585 45.8449 48.1265 45.5 48.1265C45.1551 48.1265 44.8136 48.0585 44.4949 47.9265C44.1763 47.7945 43.8867 47.6011 43.6428 47.3572L35 38.7111L26.3572 47.3572C26.1133 47.6011 25.8238 47.7945 25.5051 47.9265C25.1865 48.0585 24.8449 48.1265 24.5 48.1265C24.1551 48.1265 23.8136 48.0585 23.4949 47.9265C23.1763 47.7945 22.8867 47.6011 22.6428 47.3572C22.3989 47.1133 22.2055 46.8238 22.0735 46.5051C21.9415 46.1864 21.8736 45.8449 21.8736 45.5C21.8736 45.1551 21.9415 44.8136 22.0735 44.4949C22.2055 44.1762 22.3989 43.8867 22.6428 43.6428L31.2889 35L22.6428 26.3572C22.1503 25.8646 21.8736 25.1966 21.8736 24.5C21.8736 23.8034 22.1503 23.1354 22.6428 22.6428C23.1354 22.1503 23.8034 21.8735 24.5 21.8735C25.1966 21.8735 25.8646 22.1503 26.3572 22.6428L35 31.2889L43.6428 22.6428C43.8867 22.3989 44.1763 22.2055 44.4949 22.0735C44.8136 21.9415 45.1551 21.8735 45.5 21.8735C45.8449 21.8735 46.1865 21.9415 46.5051 22.0735C46.8238 22.2055 47.1133 22.3989 47.3572 22.6428C47.6011 22.8867 47.7946 23.1762 47.9265 23.4949C48.0585 23.8136 48.1265 24.1551 48.1265 24.5C48.1265 24.8449 48.0585 25.1864 47.9265 25.5051C47.7946 25.8238 47.6011 26.1133 47.3572 26.3572L38.7111 35L47.3572 43.6428Z" fill="#F96885"/>
</svg>
