<svg width="62" height="37" viewBox="0 0 62 37" fill="none" xmlns="http://www.w3.org/2000/svg">
<path d="M29.6513 34.6087C37.7678 30.8002 60.333 18.3639 60.7235 18.0495C61.1167 17.7352 63.2021 16.588 60.2164 15.0243C56.5527 13.107 41.464 8.99468 36.7319 11.0587C32.0025 13.1253 4.89768 26.4391 4.34717 26.756C3.79667 27.073 -0.854125 29.1789 1.41839 30.9993C3.3899 32.7411 8.84882 35.067 11.8454 35.9078C17.7219 37.558 23.5036 37.4899 29.6513 34.606V34.6087Z" fill="black" fill-opacity="0.1"/>
<path fill-rule="evenodd" clip-rule="evenodd" d="M31.639 25.4883C31.5088 26.1143 31.3 26.7586 31.0099 27.403C30.6953 28.0997 30.3156 28.7309 29.8953 29.281L28.3224 32.6991L25.3937 31.4209C25.372 31.4131 25.3503 31.4052 25.3313 31.3947C23.5279 30.6352 23.1455 27.6125 24.4798 24.6475C25.8113 21.6824 28.355 19.8935 30.1583 20.6531C30.1773 20.6609 30.1963 20.6688 30.2153 20.6766L33.2444 21.9968L31.639 25.4856V25.4883Z" fill="black"/>
<path d="M34.0114 28.7048C35.3396 25.7403 34.9522 22.725 33.1461 21.9701C31.34 21.2152 28.7991 23.0065 27.4709 25.9711C26.1426 28.9356 26.5301 31.9509 28.3362 32.7058C30.1423 33.4607 32.6832 31.6694 34.0114 28.7048Z" fill="black"/>
<path d="M33.2957 28.3666C34.292 26.1428 34.0021 23.8814 32.6482 23.3155C31.2942 22.7496 29.389 24.0936 28.3927 26.3173C27.3964 28.5411 27.6863 30.8025 29.0402 31.3684C30.3941 31.9343 32.2993 30.5903 33.2957 28.3666Z" fill="url(#paint0_linear_152_138)"/>
<path fill-rule="evenodd" clip-rule="evenodd" d="M30.7143 26.1981C30.6058 26.2715 30.5 26.3684 30.3997 26.4836L29.6078 25.1845C29.9441 24.7759 30.3156 24.4484 30.6953 24.2232L30.717 26.1981H30.7143ZM30.7604 30.5828C30.2668 30.8159 29.7705 30.8657 29.3421 30.685C29.2797 30.6588 29.22 30.6273 29.1631 30.5933L30.2831 28.6681C30.4241 28.7205 30.5787 28.71 30.7387 28.6498L30.7604 30.5802V30.5828ZM32.062 29.5246L31.2837 28.249C31.1644 28.3852 31.037 28.4926 30.9068 28.5712L30.9258 30.499C31.3217 30.279 31.7095 29.9489 32.062 29.5246ZM31.4302 26.0645C31.479 26.0855 31.5224 26.1117 31.5631 26.1457L32.6939 24.2049C32.5909 24.1184 32.477 24.0477 32.3522 23.9953C31.902 23.8067 31.3814 23.8696 30.8634 24.1315L30.8851 26.1012C31.0776 26.0122 31.2675 25.9912 31.4329 26.0619L31.4302 26.0645ZM32.9759 27.9792L31.6553 27.6518C31.6498 27.6675 31.6417 27.6833 31.6363 27.699C31.5685 27.8509 31.4844 27.9923 31.3949 28.1154L32.1732 29.391C32.4417 29.0453 32.6831 28.6445 32.8837 28.2019C32.9163 28.1285 32.9488 28.0552 32.9786 27.9819L32.9759 27.9792ZM30.058 27.0311C30.0499 27.0468 30.0444 27.0651 30.0363 27.0808L28.7021 26.7482C28.7373 26.6591 28.7726 26.5727 28.8133 26.4836C29.0058 26.0541 29.2417 25.6638 29.4994 25.3233L30.2912 26.6225C30.2044 26.7429 30.1231 26.8818 30.0553 27.0311H30.058ZM31.7149 27.4999C31.78 27.3113 31.818 27.1227 31.8261 26.9499L33.3773 26.0619C33.3773 26.6094 33.2634 27.2144 33.0356 27.8299L31.7149 27.4999ZM28.6424 26.9001C28.4038 27.5523 28.3007 28.1966 28.3197 28.7676L29.8655 27.8823C29.8655 27.6806 29.9007 27.458 29.9766 27.2301L28.6424 26.8975V26.9001ZM29.0275 30.499L30.1394 28.5895C29.9983 28.4769 29.9088 28.2909 29.8763 28.0631L28.3278 28.9484C28.3848 29.6215 28.6207 30.1768 29.0275 30.499ZM32.8159 24.3201L31.677 26.2741C31.761 26.3998 31.8098 26.5674 31.8234 26.7587L33.3719 25.8733C33.3447 25.2264 33.1549 24.6763 32.8159 24.3201Z" fill="#4D4C4C"/>
<path fill-rule="evenodd" clip-rule="evenodd" d="M31.6336 25.4359C31.5034 26.0593 31.2946 26.701 31.0072 27.3427C30.6953 28.0368 30.3157 28.6681 29.898 29.2155L28.3225 32.6415L25.3964 31.3633C25.3747 31.3555 25.3503 31.345 25.3286 31.3371C23.5252 30.5775 23.1429 27.5549 24.4771 24.5899C25.8113 21.6248 28.3523 19.8359 30.1557 20.5954C30.1746 20.6033 30.1936 20.6112 30.2126 20.6216L33.239 21.9418L31.6309 25.4385L31.6336 25.4359Z" fill="black"/>
<path d="M33.2635 21.7401C31.4601 20.9805 28.8432 22.924 27.5117 25.889C26.1802 28.8514 26.5626 31.8715 28.3659 32.6311C30.1693 33.3906 32.7103 31.6043 34.0418 28.6419C35.3733 25.6795 35.0669 22.4997 33.2635 21.7401Z" fill="black"/>
<path d="M33.1353 28.2393C34.0374 26.0716 33.729 23.9107 32.4464 23.4127C31.1638 22.9146 29.3927 24.2682 28.4905 26.4358C27.5883 28.6035 27.8967 30.7644 29.1793 31.2624C30.462 31.7604 32.2331 30.4069 33.1353 28.2393Z" fill="url(#paint1_linear_152_138)"/>
<path fill-rule="evenodd" clip-rule="evenodd" d="M31.5198 27.9556C31.2405 28.4454 30.8392 28.7676 30.4839 28.799L29.8222 30.2999C30.6792 30.4465 31.7585 29.6188 32.4039 28.2961L31.5198 27.953V27.9556ZM31.7205 27.5129C31.9131 26.955 31.8887 26.4155 31.669 26.1142L32.3307 24.6134C32.9951 25.1608 33.1144 26.4967 32.5964 27.8534L31.7205 27.5129ZM29.1605 26.5202C29.8141 25.0718 30.9883 24.1681 31.8887 24.3881L31.2351 25.8706C30.8283 25.8523 30.3402 26.2478 30.0392 26.8607L29.1633 26.5202H29.1605ZM30.0175 28.6261L29.3639 30.1086C28.6697 29.6136 28.5124 28.3171 28.9789 26.9707L29.8629 27.3139C29.7111 27.8587 29.7707 28.3694 30.0175 28.6261Z" fill="#484747"/>
<path fill-rule="evenodd" clip-rule="evenodd" d="M52.371 16.0772C52.3602 16.5984 52.2897 17.1485 52.1541 17.709C52.0077 18.3167 51.7988 18.8798 51.5439 19.3827L50.79 22.3975L48.2138 21.7794C48.1948 21.7767 48.1758 21.7715 48.1568 21.7663C46.5758 21.4074 45.8003 19.0082 46.4267 16.4072C47.0531 13.8063 48.8429 11.9885 50.4239 12.3473C50.4402 12.3526 50.4592 12.3552 50.4755 12.3604L53.1385 12.9969L52.3683 16.0746L52.371 16.0772Z" fill="black"/>
<path d="M54.7996 18.3362C55.4231 15.736 54.6451 13.3411 53.062 12.987C51.4789 12.6328 49.6901 14.4536 49.0667 17.0537C48.4432 19.6538 49.2211 22.0488 50.8042 22.4029C52.3873 22.757 54.1761 20.9363 54.7996 18.3362Z" fill="black"/>
<path d="M54.1348 18.316C54.6021 16.367 54.0182 14.5716 52.8305 14.3059C51.6428 14.0402 50.3011 15.4048 49.8338 17.3539C49.3664 19.3029 49.9504 21.0983 51.1381 21.364C52.3258 21.6297 53.6674 20.2651 54.1348 18.316Z" fill="url(#paint2_linear_152_138)"/>
<path d="M53.962 18.4387C54.5637 16.5955 54.1679 14.8322 53.0781 14.5003C51.9882 14.1684 50.6169 15.3936 50.0152 17.2368C49.4135 19.08 49.8093 20.8432 50.8991 21.1751C51.989 21.507 53.3603 20.2819 53.962 18.4387Z" fill="url(#paint3_linear_152_138)"/>
<path fill-rule="evenodd" clip-rule="evenodd" d="M52.6965 18.246C52.5256 18.6729 52.2409 18.982 51.9534 19.0605L51.5873 20.365C52.3114 20.3597 53.0951 19.5477 53.4666 18.3979L52.6938 18.246H52.6965ZM52.8131 17.8478C52.9053 17.3737 52.8185 16.9468 52.607 16.732L52.9731 15.425C53.5833 15.776 53.8436 16.8342 53.5805 17.9997L52.8131 17.8478ZM50.5785 17.4078C50.9446 16.1453 51.8043 15.2521 52.5745 15.3045L52.2138 16.5932C51.8748 16.6351 51.5168 17.0201 51.3433 17.5597L50.5785 17.4078ZM51.544 18.9898L51.1833 20.2759C50.5514 19.9747 50.264 18.9558 50.4836 17.8085L51.2565 17.9605C51.2023 18.4188 51.3134 18.817 51.5467 18.9872L51.544 18.9898Z" fill="url(#paint4_linear_152_138)"/>
<path d="M14.1802 32.4713C18.8093 33.9486 24.6886 31.1747 25.9713 30.5435C26.0743 30.4911 26.1394 30.3942 26.1476 30.2816C26.2967 28.579 26.6357 26.942 27.517 25.4542C28.6045 23.6155 30.9367 21.3393 32.7943 21.9391C34.9041 22.6201 34.7739 24.7339 34.7414 25.4306C34.7197 25.8654 34.7034 26.0252 34.6925 26.4836C34.6871 26.7115 34.8742 26.8241 35.0885 26.7272L48.6097 20.6138C48.7073 20.5692 48.7778 20.4828 48.7914 20.378C48.9514 19.0789 48.428 17.8007 49.7866 15.4485C50.7032 13.8613 51.9398 12.7743 53.1791 13.1383C54.4184 13.4998 54.8442 15.2076 54.8984 15.6083C55.0069 16.1715 55.015 16.5408 54.9798 16.842C54.996 17.0123 56.0645 15.6371 56.173 15.074C56.5038 13.3584 56.5581 12.5411 56.3574 10.8046C56.3248 10.5217 56.211 9.81185 56.1242 9.52635C56.1106 9.48182 56.1025 9.43205 56.1052 9.38491C56.135 8.78771 56.0184 7.91549 55.8449 7.54617C55.6496 7.12708 55.0232 5.46646 53.8218 5.23072C51.6415 3.23745 44.127 0.927239 43.4057 0.88795C43.1155 0.872234 42.3535 0.66793 42.2857 0.633879C41.9196 0.442671 40.2003 0.00525103 39.6552 1.24628e-05C35.5603 -0.0314189 29.0682 1.68683 24.9842 3.81893C22.2696 5.23596 17.3775 10.1838 16.4121 10.8019C10.4813 14.5973 7.12946 16.0484 5.7193 17.4182C4.03797 19.7075 4.49356 20.5247 4.48542 20.9386C4.46101 21.1691 3.88882 25.1189 5.01694 26.8948C5.30168 27.1698 4.51525 29.3858 14.1857 32.4713H14.1802Z" fill="url(#paint5_linear_152_138)"/>
<path d="M18.2671 11.9623C17.7111 11.5301 16.6888 10.8203 16.8379 10.7208C17.7817 10.0948 18.5518 9.20158 20.2684 7.68502C24.206 4.19875 24.9029 4.09398 24.9762 4.0966C24.9816 4.0966 24.987 4.0966 24.9897 4.09922L37.277 8.7694C37.3882 8.81131 37.418 8.94751 37.3367 9.03133C34.2425 12.2321 33.1117 14.9509 31.0561 15.7943C28.0134 17.0463 20.0406 13.3427 18.2671 11.9597V11.9623Z" fill="url(#paint6_linear_152_138)"/>
<path d="M38.7333 9.35346C37.6811 10.7862 34.5977 14.2987 33.9333 15.5271C33.3937 16.5224 50.6111 7.97833 51.1101 7.70593C52.1297 7.14802 54.2721 6.57964 53.5589 6.16579C52.8457 5.75194 50.565 4.63613 49.2715 4.6466C47.1861 4.66756 46.7006 4.88758 45.2715 5.33548C43.8424 5.78599 40.4851 6.96205 38.7333 9.35084V9.35346Z" fill="url(#paint7_linear_152_138)"/>
<path d="M16.7755 23.9115C12.8514 23.6941 11.6664 23.2304 11.341 22.8349C11.0806 22.518 27.4601 17.4392 35.2837 15.1133C32.6722 17.3921 30.2397 19.883 25.8845 21.8894C25.3855 22.1199 20.6371 24.1262 16.7755 23.9115Z" fill="url(#paint8_linear_152_138)" fill-opacity="0.21"/>
<path d="M40.7346 14.0367C40.7346 14.1546 40.8648 14.2332 40.976 14.1782L42.4404 13.4762C42.4973 13.4474 42.5326 13.3924 42.5326 13.3295V13.12C42.5299 13.0021 42.3997 12.9235 42.2885 12.9785L40.8241 13.6831C40.7672 13.7119 40.7319 13.767 40.7319 13.8298V14.0367H40.7346Z" fill="#323333"/>
<path d="M49.2498 9.96901C49.2498 10.0869 49.3799 10.1655 49.4911 10.1105L50.9555 9.40848C51.0125 9.37967 51.0477 9.32467 51.0477 9.26181V9.05226C51.045 8.9344 50.9148 8.85582 50.8037 8.91082L49.3393 9.61541C49.2823 9.64422 49.2471 9.69923 49.2471 9.76209V9.96901H49.2498Z" fill="#323333"/>
<path d="M26.9503 15.7053C29.0086 16.3391 30.4485 16.0196 31.3706 15.6607C32.5285 15.2102 33.7217 13.3715 35.2946 11.3913C36.3875 10.0162 36.4932 9.89831 36.9352 9.47399C37.2851 9.08371 37.4559 8.98942 37.3719 8.84274C37.3719 8.84274 37.4261 8.80345 36.7807 8.57557C36.2844 8.40008 33.4858 7.33403 32.3468 6.89137L22.4974 14.1966C24.0134 14.799 25.9062 15.4643 26.9503 15.7V15.7053Z" fill="black"/>
<path d="M15.2297 25.5014C14.9287 24.6999 14.8066 24.2389 14.8066 24.2389C15.2758 24.2703 15.4222 24.2493 15.7097 24.2441C16.0568 24.2362 16.4093 24.2153 16.7727 24.176C19.4357 23.8957 21.8032 23.1309 22.991 22.7695C23.216 22.7013 23.3896 22.8795 23.273 23.0759C22.9259 23.6679 21.0032 25.9388 20.6073 26.0436C19.6283 26.3055 17.0873 26.3579 15.5687 26.4757C15.5687 26.4757 15.4331 26.0226 15.227 25.504L15.2297 25.5014Z" fill="#211F1F"/>
<path d="M4.3606 19.7023C4.77008 18.8012 5.55923 17.5597 5.32872 18.2014C5.31787 18.2329 5.30974 18.2669 5.30431 18.301C5.21754 19.147 5.27991 19.4534 5.85753 20.1214C5.74906 20.7867 5.62973 21.3184 5.54024 21.5882L4.54229 21.2319C4.48263 20.9386 4.45822 20.75 4.45009 20.6845C4.41483 20.3885 4.3606 19.7023 4.3606 19.7023Z" fill="#211F1F"/>
<path d="M15.7342 24.2572C15.7342 24.2572 10.9234 24.6291 5.82514 20.0847L5.37769 20.4435C5.37769 20.4435 8.75663 24.6108 15.406 25.4228C15.7613 25.4673 15.7342 24.2546 15.7342 24.2546V24.2572Z" fill="#211F1F"/>
<path d="M41.4151 3.942L38.5433 5.19925C38.4999 5.21759 38.4511 5.22021 38.405 5.20449L32.5583 3.07501C32.4064 3.02001 32.401 2.81309 32.5529 2.75022L35.262 1.65536C35.3027 1.63965 35.3488 1.63703 35.3894 1.65012L41.4016 3.61721C41.5562 3.66697 41.567 3.87652 41.4178 3.942H41.4151Z" fill="white"/>
<path d="M35.4275 25.3206L48.005 19.5975C47.9589 18.7619 48.0511 16.2474 49.247 14.8749L33.6512 21.3917C34.2343 21.617 35.8722 22.9161 35.4248 25.3232L35.4275 25.3206Z" fill="url(#paint9_linear_152_138)"/>
<path d="M40.6371 16.3338L37.8575 17.4863C37.5619 17.6094 37.3232 17.963 37.3232 18.28V21.2424C37.3232 21.5567 37.5619 21.7243 37.8575 21.6169L40.6371 20.6111C40.9327 20.5037 41.1713 20.1501 41.1713 19.8201V16.7136C41.1713 16.3836 40.9327 16.2134 40.6371 16.3365V16.3338Z" fill="url(#paint10_linear_152_138)"/>
<path d="M40.6371 20.6426L37.8574 21.6484C37.5456 21.761 37.2906 21.5829 37.2906 21.2502V18.2904C37.2906 17.9578 37.5456 17.5806 37.8574 17.4523L40.6371 16.2998C40.9489 16.1714 41.2038 16.3496 41.2038 16.6979V19.8044C41.2038 20.1528 40.9489 20.5299 40.6371 20.6426ZM37.8574 17.5178C37.5781 17.633 37.353 17.9683 37.353 18.2643V21.2267C37.353 21.5226 37.5781 21.6824 37.8574 21.5803L40.6371 20.5718C40.9164 20.4723 41.1415 20.137 41.1415 19.8254V16.7215C41.1415 16.4098 40.9164 16.25 40.6371 16.3653L37.8574 17.5151V17.5178Z" fill="#C5D01C"/>
<path d="M38.2994 20.2706L38.2533 20.2889L38.1476 20.7473L38.1937 20.7316L38.2994 20.2706Z" fill="#C5D01C"/>
<path d="M38.378 20.2418L38.3482 20.2523L38.2397 20.7132L38.2696 20.7028L38.378 20.2418Z" fill="#C5D01C"/>
<path d="M38.4294 20.2234L38.4104 20.2287L38.3047 20.6897L38.3237 20.6818L38.4294 20.2234Z" fill="#C5D01C"/>
<path d="M37.9197 20.4147L37.757 20.4775L37.6512 20.9333L37.814 20.873L37.9197 20.4147Z" fill="#C5D01C"/>
<path d="M38.0852 20.3518L37.9821 20.3911L37.8763 20.8495L37.9794 20.8102L38.0852 20.3518Z" fill="#C5D01C"/>
<path d="M38.2099 20.3046L38.1313 20.3334L38.0228 20.7944L38.1015 20.7656L38.2099 20.3046Z" fill="#C5D01C"/>
<path d="M40.3115 19.4036L40.4363 19.3565L40.5447 18.8797L40.42 18.9269L40.3115 19.4036Z" fill="#C5D01C"/>
<path d="M40.4796 19.3407L40.6667 19.2674L40.7752 18.7907L40.5881 18.864L40.4796 19.3407Z" fill="#C5D01C"/>
<path d="M40.1896 19.4481L40.2682 19.4193L40.3794 18.9426L40.3008 18.9741L40.1896 19.4481Z" fill="#C5D01C"/>
<path d="M40.0892 19.4874L40.1516 19.4638L40.2601 18.9897L40.2004 19.0107L40.0892 19.4874Z" fill="#C5D01C"/>
<path d="M40.0159 19.5136L40.0511 19.5005L40.1596 19.0264L40.1243 19.0421L40.0159 19.5136Z" fill="#C5D01C"/>
<path d="M39.9563 19.5372L39.978 19.5293L40.0865 19.0552L40.0648 19.0631L39.9563 19.5372Z" fill="#C5D01C"/>
<path d="M40.6615 19.3827L40.6371 19.4927L40.4093 19.5765C40.3822 19.587 40.3795 19.6105 40.3795 19.6184C40.3795 19.6341 40.3903 19.6446 40.4039 19.6394L40.5259 19.5922C40.5774 19.5739 40.6127 19.587 40.6046 19.6236L40.5666 19.7939C40.553 19.8384 40.5205 19.8646 40.4825 19.8803L39.8724 20.1056C39.848 20.1161 39.829 20.0925 39.8371 20.0532L39.9266 19.6551L40.252 19.532L40.2276 19.642L40.0161 19.7205L39.9998 19.7886L40.2005 19.7127L40.1761 19.8227L39.9754 19.8987L39.9619 19.9537C39.9591 19.9694 39.9619 19.9668 39.9754 19.9615L40.4419 19.7886C40.4608 19.7808 40.4717 19.7625 40.4717 19.7441C40.4717 19.7441 40.4717 19.7153 40.4446 19.7258L40.2819 19.786C40.2466 19.7991 40.233 19.786 40.2385 19.7572L40.2819 19.5634C40.2927 19.5189 40.3225 19.5084 40.3388 19.5031L40.6561 19.3827H40.6615Z" fill="white"/>
<path d="M39.8397 19.6891C39.8803 19.676 39.8749 19.7127 39.8641 19.7598L39.8315 19.9117C39.8207 19.9432 39.8125 19.9615 39.7773 19.972L39.7366 19.9877L39.8071 20.1318L39.6986 20.171L39.6227 20.0296L39.6471 19.9222L39.7339 19.8882C39.7637 19.8777 39.761 19.8751 39.7637 19.8594V19.8436C39.7746 19.8122 39.7637 19.8122 39.742 19.8227L39.582 19.8829L39.5007 20.2418L39.3678 20.2915L39.4736 19.8253L39.742 19.7232L39.8424 19.6865L39.8397 19.6891Z" fill="white"/>
<path d="M39.3244 20.095C39.3678 20.0715 39.3732 20.095 39.3705 20.116L39.3352 20.2758C39.3271 20.3098 39.3081 20.3151 39.243 20.3413L39.0857 20.3989L39.1129 20.2836L39.2186 20.2443C39.243 20.2365 39.262 20.1658 39.2322 20.1789L39.1291 20.2182L39.1535 20.1108L39.2593 20.0715C39.3 20.0558 39.2973 19.9955 39.2593 20.0112L39.1101 20.0662L39.0288 20.4225L38.9176 20.4644L39.0234 20.0008L39.3081 19.8934C39.3786 19.8672 39.403 19.8881 39.3949 19.9327L39.3759 20.0217C39.3651 20.0662 39.3515 20.0846 39.3298 20.095H39.3244Z" fill="white"/>
<path d="M38.9693 20.0191L38.8636 20.4827L38.7469 20.5273L38.8527 20.0636L38.9693 20.0191Z" fill="white"/>
<path d="M38.7333 20.4251L38.7062 20.5404L38.4567 20.632C38.397 20.653 38.3862 20.6451 38.4106 20.5535L38.492 20.1972L38.614 20.1501L38.5787 20.3073L38.5462 20.4513C38.5353 20.4906 38.5516 20.4932 38.595 20.4775L38.7306 20.4277L38.7333 20.4251Z" fill="white"/>
<path fill-rule="evenodd" clip-rule="evenodd" d="M39.3896 19.3224L39.2838 19.7913L39.4546 19.7258L39.5604 19.2569L39.3896 19.3224ZM39.075 19.5424L39.1997 19.3931L39.3597 19.3303L39.1157 19.6184L39.2214 19.8122L39.0262 19.8856L38.9746 19.7886L38.8309 19.9615L38.6709 20.0218L38.934 19.7101L38.8363 19.5346L39.0316 19.4586L39.0777 19.5424H39.075ZM37.8899 19.896L37.8628 20.0139L37.9767 19.9694L37.8953 20.3125L38.0526 20.2523L38.1313 19.9091L38.256 19.862L38.2831 19.7441L37.8872 19.896H37.8899ZM38.4458 19.6813L38.6221 19.6132L38.6438 20.0296L38.4675 20.0951V20.0191L38.313 20.0794L38.256 20.1763L38.1258 20.2261L38.4458 19.6813ZM38.4648 19.9301V19.807L38.3726 19.9641L38.4648 19.9275V19.9301ZM39.6553 19.2176L39.997 19.0867C40.0106 19.0814 40.0187 19.0814 40.0133 19.0998L39.997 19.1784C39.9943 19.1941 39.9862 19.2045 39.9699 19.2072L39.7529 19.291C39.7367 19.2962 39.7258 19.3146 39.7258 19.325C39.7258 19.3355 39.734 19.3486 39.7448 19.3434L39.9075 19.2805C39.9455 19.2648 39.978 19.2622 39.9645 19.3119L39.9184 19.511C39.9129 19.5346 39.9075 19.5477 39.8912 19.5555L39.5116 19.6996C39.5116 19.6996 39.498 19.6996 39.5007 19.6891L39.5224 19.6027C39.5224 19.5896 39.5333 19.587 39.5414 19.5843L39.7746 19.4953C39.7746 19.4953 39.799 19.4796 39.799 19.4586C39.799 19.4429 39.7909 19.435 39.7774 19.4403L39.6146 19.5031C39.5984 19.5084 39.5875 19.511 39.5794 19.5031C39.5713 19.4979 39.5685 19.4822 39.5794 19.456L39.6255 19.2491C39.6309 19.2334 39.6418 19.2229 39.658 19.2176H39.6553Z" fill="white"/>
<path fill-rule="evenodd" clip-rule="evenodd" d="M38.7009 17.8216L38.6115 18.2118L38.983 18.0625L38.7199 19.2019L39.2352 19.0029L39.4955 17.8582L39.905 17.6932L39.9945 17.2977L38.7009 17.8216Z" fill="#C5D01C"/>
<path style="mix-blend-mode:multiply" opacity="0.5" d="M39.0262 17.8818C39.4302 17.6828 39.9292 17.2323 40.0404 16.9441C39.9347 16.4203 39.4601 16.2186 38.9123 16.4989C38.3808 16.7713 37.9604 17.4313 37.9496 17.9997C38.134 18.1438 38.6221 18.0835 39.0262 17.8845V17.8818Z" fill="url(#paint11_linear_152_138)"/>
<path style="mix-blend-mode:multiply" opacity="0.5" d="M39.1997 18.0836C39.0641 18.555 39.0668 19.1496 39.2214 19.2989C39.7367 19.2256 40.2628 18.7122 40.4472 18.0678C40.6261 17.4392 40.3848 16.9075 39.9102 16.8525C39.6499 17.0542 39.3353 17.6121 39.1997 18.0836Z" fill="url(#paint12_linear_152_138)"/>
<path style="mix-blend-mode:multiply" opacity="0.5" d="M38.0066 18.6021C38.1991 18.9636 38.6303 19.2544 38.9015 19.181C39.3923 18.6493 39.5849 17.8792 39.3245 17.3842C39.0696 16.9075 38.4405 16.8918 37.8927 17.3292C37.7544 17.6775 37.8167 18.2459 38.0093 18.6021H38.0066Z" fill="url(#paint13_linear_152_138)"/>
<path d="M43.8694 18.576L47.7229 16.6849C47.8097 16.6351 47.8666 16.5277 47.8666 16.4072V13.8377C47.8666 13.6151 47.6795 13.4684 47.5141 13.56L43.6606 15.4512C43.5738 15.5009 43.5168 15.6083 43.5168 15.7288V18.2983C43.5168 18.521 43.704 18.6676 43.8694 18.576Z" fill="white"/>
<defs>
<linearGradient id="paint0_linear_152_138" x1="28.1871" y1="33.1333" x2="30.2285" y2="29.0634" gradientUnits="userSpaceOnUse">
<stop stop-color="#3F3F3F"/>
<stop offset="1" stop-color="#5D5D5D"/>
</linearGradient>
<linearGradient id="paint1_linear_152_138" x1="34.6765" y1="36.382" x2="36.2818" y2="28.5091" gradientUnits="userSpaceOnUse">
<stop stop-color="#3F3F3F"/>
<stop offset="1" stop-color="#777676"/>
</linearGradient>
<linearGradient id="paint2_linear_152_138" x1="50.7083" y1="22.9661" x2="51.7705" y2="19.3762" gradientUnits="userSpaceOnUse">
<stop stop-color="#3F3F3F"/>
<stop offset="1" stop-color="#5D5D5D"/>
</linearGradient>
<linearGradient id="paint3_linear_152_138" x1="48.6087" y1="22.8557" x2="49.0621" y2="16.2374" gradientUnits="userSpaceOnUse">
<stop stop-color="#3F3F3F"/>
<stop offset="1" stop-color="#777676"/>
</linearGradient>
<linearGradient id="paint4_linear_152_138" x1="52.5256" y1="19.0684" x2="50.9439" y2="14.726" gradientUnits="userSpaceOnUse">
<stop stop-color="#3F3F3F"/>
<stop offset="1" stop-color="#777676"/>
</linearGradient>
<linearGradient id="paint5_linear_152_138" x1="35.78" y1="24.1786" x2="19.1139" y2="1.00915" gradientUnits="userSpaceOnUse">
<stop stop-color="#CADC31"/>
<stop offset="0.63" stop-color="#B1C126"/>
<stop offset="1" stop-color="#A3B12C"/>
</linearGradient>
<linearGradient id="paint6_linear_152_138" x1="13.4075" y1="-3.59623" x2="26.9288" y2="10.6115" gradientUnits="userSpaceOnUse">
<stop stop-color="#E8EAE8"/>
<stop offset="0.5" stop-color="#707072"/>
<stop offset="1" stop-color="#2F3133"/>
</linearGradient>
<linearGradient id="paint7_linear_152_138" x1="37.814" y1="-3.27411" x2="42.593" y2="8.87224" gradientUnits="userSpaceOnUse">
<stop stop-color="#E8EAE8"/>
<stop offset="0.5" stop-color="#707072"/>
<stop offset="1" stop-color="#2F3133"/>
</linearGradient>
<linearGradient id="paint8_linear_152_138" x1="25.1578" y1="24.0215" x2="23.3251" y2="18.6538" gradientUnits="userSpaceOnUse">
<stop stop-color="#ECEAEA"/>
<stop offset="1" stop-color="white" stop-opacity="0"/>
</linearGradient>
<linearGradient id="paint9_linear_152_138" x1="42.9652" y1="19.2873" x2="44.3153" y2="23.0563" gradientUnits="userSpaceOnUse">
<stop stop-color="#C7D930"/>
<stop offset="1" stop-color="#99A820"/>
</linearGradient>
<linearGradient id="paint10_linear_152_138" x1="39.2459" y1="21.5855" x2="39.2459" y2="15.5454" gradientUnits="userSpaceOnUse">
<stop stop-color="#232322"/>
<stop offset="1" stop-color="#343433"/>
</linearGradient>
<linearGradient id="paint11_linear_152_138" x1="38.9322" y1="16.6365" x2="39.0474" y2="17.9888" gradientUnits="userSpaceOnUse">
<stop stop-color="white" stop-opacity="0"/>
<stop offset="1" stop-color="#C7C5C4"/>
</linearGradient>
<linearGradient id="paint12_linear_152_138" x1="40.2043" y1="18.4634" x2="39.2711" y2="18.1285" gradientUnits="userSpaceOnUse">
<stop stop-color="white" stop-opacity="0"/>
<stop offset="1" stop-color="#C7C5C4"/>
</linearGradient>
<linearGradient id="paint13_linear_152_138" x1="39.2929" y1="17.8514" x2="37.9946" y2="18.5012" gradientUnits="userSpaceOnUse">
<stop stop-color="white" stop-opacity="0"/>
<stop offset="1" stop-color="#C7C5C4"/>
</linearGradient>
</defs>
</svg>
