<svg width="29" height="29" viewBox="0 0 29 29" fill="none" xmlns="http://www.w3.org/2000/svg">
<path d="M10.7829 16.853C10.4358 16.853 10.1028 16.9909 9.85734 17.2364C9.61185 17.4819 9.47394 17.8149 9.47394 18.162V26.013H2.93194V18.162C2.92252 17.8213 2.78053 17.4976 2.53616 17.2599C2.2918 17.0222 1.96435 16.8892 1.62344 16.8892C1.28254 16.8892 0.955082 17.0222 0.710719 17.2599C0.466355 17.4976 0.324363 17.8213 0.314941 18.162V27.322C0.314941 27.6692 0.452854 28.0021 0.698339 28.2476C0.943824 28.4931 1.27677 28.631 1.62394 28.631H10.7839C11.1311 28.631 11.4641 28.4931 11.7095 28.2476C11.955 28.0021 12.0929 27.6692 12.0929 27.322V18.162C12.0929 17.99 12.059 17.8197 11.9932 17.6609C11.9274 17.502 11.8308 17.3576 11.7092 17.2361C11.5875 17.1145 11.4431 17.0181 11.2842 16.9524C11.1252 16.8867 10.9549 16.8529 10.7829 16.853Z" fill="black" stroke="white" stroke-width="0.5"/>
<path d="M26.4848 16.853C26.1377 16.853 25.8047 16.9909 25.5592 17.2364C25.3138 17.4819 25.1758 17.8149 25.1758 18.162V26.013H18.6338V18.162C18.6244 17.8213 18.4824 17.4976 18.2381 17.2599C17.9937 17.0222 17.6662 16.8892 17.3253 16.8892C16.9844 16.8892 16.657 17.0222 16.4126 17.2599C16.1683 17.4976 16.0263 17.8213 16.0168 18.162V27.322C16.0168 27.6692 16.1548 28.0021 16.4002 28.2476C16.6457 28.4931 16.9787 28.631 17.3258 28.631H26.4858C26.833 28.631 27.166 28.4931 27.4114 28.2476C27.6569 28.0021 27.7948 27.6692 27.7948 27.322V18.162C27.7948 17.99 27.761 17.8197 27.6951 17.6609C27.6293 17.502 27.5328 17.3576 27.4111 17.2361C27.2894 17.1145 27.145 17.0181 26.9861 16.9524C26.8272 16.8867 26.6568 16.8529 26.4848 16.853Z" fill="black" stroke="white" stroke-width="0.5"/>
<path d="M20.595 10.311V11.096L18.895 9.39601C18.7691 9.25373 18.6123 9.1422 18.4366 9.06999C18.2609 8.99778 18.0709 8.96681 17.8814 8.97946C17.6918 8.99211 17.5077 9.04805 17.3431 9.14297C17.1785 9.23789 17.0379 9.36927 16.932 9.52701C16.7421 9.78956 16.6511 10.1108 16.6751 10.4339C16.6991 10.7571 16.8365 11.0614 17.063 11.293L20.99 15.151C21.1065 15.278 21.248 15.3793 21.4057 15.4486C21.5634 15.518 21.7338 15.5538 21.906 15.5538C22.0783 15.5538 22.2487 15.518 22.4063 15.4486C22.564 15.3793 22.7056 15.278 22.822 15.151L26.748 11.291C26.9746 11.0594 27.112 10.7551 27.136 10.4319C27.16 10.1088 27.0689 9.78756 26.879 9.52501C26.7732 9.36727 26.6325 9.23589 26.468 9.14097C26.3034 9.04605 26.1193 8.99011 25.9297 8.97746C25.7401 8.96481 25.5502 8.99578 25.3745 9.06799C25.1988 9.1402 25.0419 9.25173 24.916 9.39401L23.216 11.094V10.311C23.216 7.8815 22.2509 5.55149 20.533 3.83356C18.8151 2.11563 16.485 1.15051 14.0555 1.15051C11.626 1.15051 9.29601 2.11563 7.57808 3.83356C5.86015 5.55149 4.89503 7.8815 4.89503 10.311V14.237C4.8902 14.4119 4.92047 14.586 4.98405 14.7489C5.04763 14.9119 5.14324 15.0605 5.26523 15.1859C5.38721 15.3113 5.53309 15.411 5.69425 15.4791C5.85542 15.5471 6.02859 15.5822 6.20353 15.5822C6.37848 15.5822 6.55165 15.5471 6.71281 15.4791C6.87397 15.411 7.01985 15.3113 7.14184 15.1859C7.26382 15.0605 7.35943 14.9119 7.42301 14.7489C7.4866 14.586 7.51687 14.4119 7.51203 14.237V10.311C7.53331 8.58984 8.23198 6.94639 9.45662 5.73679C10.6813 4.52719 12.3332 3.8489 14.0545 3.8489C15.7758 3.8489 17.4278 4.52719 18.6524 5.73679C19.8771 6.94639 20.5758 8.58984 20.597 10.311H20.595Z" fill="black" stroke="white" stroke-width="0.5"/>
</svg>
