<svg width="21" height="20" viewBox="0 0 21 20" fill="none" xmlns="http://www.w3.org/2000/svg">
<path d="M19.4441 9.943C19.4441 11.7117 18.9196 13.4407 17.937 14.9114C16.9544 16.382 15.5577 17.5283 13.9237 18.2052C12.2896 18.8821 10.4915 19.0592 8.75678 18.7142C7.02204 18.3692 5.42855 17.5176 4.17781 16.267C2.92707 15.0164 2.07525 13.423 1.73007 11.6883C1.38489 9.9536 1.56185 8.15549 2.23857 6.52135C2.91529 4.88722 4.06138 3.49044 5.53192 2.50765C7.00245 1.52486 8.73139 1.0002 10.5001 1C12.8719 1 15.1466 1.94221 16.8238 3.61934C18.5009 5.29648 19.4431 7.57117 19.4431 9.943H19.4441Z" stroke="white" stroke-width="1.6" stroke-linecap="round" stroke-linejoin="round"/>
<path d="M10.5001 4.577V9.943L14.0771 11.732" stroke="white" stroke-width="1.6" stroke-linecap="round" stroke-linejoin="round"/>
</svg>
