<svg width="28" height="29" viewBox="0 0 28 29" fill="none" xmlns="http://www.w3.org/2000/svg">
<path d="M14.8679 11.9791L18.7489 8.13506C18.8758 8.00533 18.9528 7.8349 18.9661 7.6539C18.9795 7.47291 18.9284 7.29302 18.8219 7.14606C18.7621 7.05826 18.6831 6.98522 18.5909 6.93247C18.4987 6.87973 18.3957 6.84866 18.2897 6.84162C18.1837 6.83459 18.0775 6.85177 17.9791 6.89187C17.8808 6.93197 17.7928 6.99393 17.7219 7.07306L13.8409 10.9541L9.95993 7.07306C9.88905 6.99393 9.8011 6.93197 9.70273 6.89187C9.60435 6.85177 9.49814 6.83459 9.39215 6.84162C9.28615 6.84866 9.18314 6.87973 9.09093 6.93247C8.99872 6.98522 8.91972 7.05826 8.85993 7.14606C8.75344 7.29302 8.70235 7.47291 8.71571 7.6539C8.72907 7.8349 8.80601 8.00533 8.93293 8.13506L12.8159 11.9791L8.93593 15.8231C8.80901 15.9528 8.73207 16.1232 8.71871 16.3042C8.70535 16.4852 8.75644 16.6651 8.86293 16.8121C8.92272 16.8999 9.00172 16.9729 9.09393 17.0257C9.18614 17.0784 9.28915 17.1095 9.39515 17.1165C9.50114 17.1235 9.60735 17.1064 9.70573 17.0663C9.8041 17.0262 9.89205 16.9642 9.96293 16.8851L13.8439 13.0041L17.7249 16.8851C17.7958 16.9642 17.8838 17.0262 17.9821 17.0663C18.0805 17.1064 18.1867 17.1235 18.2927 17.1165C18.3987 17.1095 18.5017 17.0784 18.5939 17.0257C18.6861 16.9729 18.7651 16.8999 18.8249 16.8121C18.9314 16.6651 18.9825 16.4852 18.9691 16.3042C18.9558 16.1232 18.8788 15.9528 18.7519 15.8231L14.8679 11.9791Z" fill="black" stroke="black"/>
<path d="M25.4001 1.62305H2.28409C1.94355 1.62305 1.61696 1.75832 1.37616 1.99912C1.13536 2.23992 1.00009 2.56651 1.00009 2.90705V26.023C0.997121 26.2773 1.07048 26.5266 1.21068 26.7387C1.35088 26.9508 1.55148 27.116 1.78655 27.2129C2.02162 27.3098 2.28036 27.334 2.52931 27.2823C2.77827 27.2307 3.00601 27.1055 3.18309 26.923L8.19209 22.171H25.4001C25.7406 22.171 26.0672 22.0358 26.308 21.795C26.5488 21.5542 26.6841 21.2276 26.6841 20.887V2.90705C26.6841 2.56651 26.5488 2.23992 26.308 1.99912C26.0672 1.75832 25.7406 1.62305 25.4001 1.62305V1.62305Z" stroke="black" stroke-width="2"/>
</svg>
