<svg width="17" height="18" viewBox="0 0 17 18" fill="none" xmlns="http://www.w3.org/2000/svg">
<path d="M5.71473 9.25882L1.0907 4.67789C0.900702 4.48889 0.703707 4.30489 0.526707 4.10489C0.359613 3.93444 0.229014 3.73167 0.142856 3.50907C0.0566988 3.28647 0.0168115 3.04862 0.0256079 2.81009C0.0344042 2.57156 0.0916849 2.33739 0.194004 2.12174C0.296323 1.90609 0.441507 1.7135 0.620701 1.55582C0.780327 1.38538 0.972766 1.24903 1.18644 1.15482C1.4001 1.06061 1.63061 1.0105 1.86411 1.0076C2.09761 1.00471 2.32929 1.04909 2.54523 1.13797C2.76117 1.22686 2.9569 1.35839 3.1207 1.52481C4.1797 2.53681 5.20173 3.58891 6.23273 4.62491C6.86973 5.26791 7.49573 5.92492 8.15873 6.60392C8.38773 6.39192 8.55873 6.24683 8.71073 6.09183C10.2107 4.59183 11.7107 3.07683 13.2257 1.58683C13.5323 1.24163 13.9626 1.03121 14.4233 1.00125C14.8841 0.971302 15.338 1.12432 15.6867 1.42691C16.0417 1.68419 16.2902 2.06259 16.3851 2.49063C16.48 2.91868 16.4147 3.3667 16.2017 3.74991C16.034 4.00915 15.8348 4.24654 15.6087 4.45682C14.0657 6.03582 12.5177 7.6088 10.9167 9.2388C11.0227 9.3518 11.1657 9.51488 11.3167 9.66788C12.7947 11.1379 14.2827 12.5979 15.7507 14.0779C15.9813 14.2648 16.1634 14.5045 16.2815 14.7768C16.3997 15.049 16.4505 15.3457 16.4296 15.6418C16.4087 15.9378 16.3167 16.2245 16.1614 16.4775C16.0062 16.7304 15.7922 16.9422 15.5377 17.0949C15.1586 17.3557 14.6948 17.4632 14.2396 17.3957C13.7844 17.3281 13.3717 17.0906 13.0847 16.7309C11.6227 15.2739 10.1747 13.8039 8.71973 12.3399C8.56373 12.1829 8.39771 12.0328 8.10971 11.7588C7.85571 12.0738 7.64571 12.3819 7.38971 12.6429C6.01571 14.0429 4.63872 15.4428 3.24472 16.8158C2.99159 17.1076 2.64907 17.3076 2.27051 17.3844C1.89195 17.4613 1.4986 17.4108 1.15171 17.2409C0.786134 17.0884 0.481096 16.8195 0.283848 16.476C0.0865996 16.1325 0.00815444 15.7335 0.0607031 15.3409C0.183826 14.8479 0.435769 14.3965 0.790714 14.0329C2.19071 12.5719 3.63571 11.1568 5.07071 9.73282C5.27503 9.56122 5.49015 9.40289 5.71473 9.25882Z" fill="#1B1F3B"/>
</svg>
