<svg width="26" height="26" viewBox="0 0 26 26" fill="none" xmlns="http://www.w3.org/2000/svg">
<path d="M16 7H9V23H16V7Z" fill="white"/>
<path d="M25.017 7.38801C25.0249 7.16183 24.9863 6.93643 24.9034 6.72585C24.8204 6.51526 24.6951 6.324 24.535 6.16397C24.375 6.00394 24.1837 5.87856 23.9731 5.79564C23.7626 5.71273 23.5372 5.67405 23.311 5.68201H20.639C20.7388 5.50287 20.8151 5.31164 20.866 5.11301C21.1543 4.10303 21.0318 3.02 20.525 2.10001C20.2768 1.62362 19.9306 1.20512 19.5093 0.871978C19.0879 0.538836 18.6008 0.298588 18.08 0.167009C17.0627 -0.13395 15.9677 -0.0223452 15.0321 0.477686C14.0964 0.977717 13.3951 1.82598 13.08 2.83901L12.511 4.77201L11.942 2.83901C11.6269 1.82598 10.9256 0.977717 9.98992 0.477686C9.05423 -0.0223452 7.95932 -0.13395 6.94199 0.167009C6.42037 0.298193 5.93245 0.538361 5.51034 0.871704C5.08823 1.20505 4.74151 1.62401 4.49299 2.10101C3.9862 3.021 3.86363 4.10403 4.15199 5.11401C4.20291 5.31263 4.2792 5.50387 4.37899 5.68301H1.70199C1.47639 5.67589 1.25173 5.71517 1.04193 5.7984C0.832126 5.88163 0.641643 6.00705 0.482277 6.16688C0.322911 6.32672 0.198054 6.51757 0.115439 6.72762C0.0328236 6.93766 -0.00579091 7.16243 0.00198635 7.38801V13.642H1.13799V23.307C1.13002 23.5332 1.1687 23.7586 1.25162 23.9692C1.33454 24.1798 1.45991 24.371 1.61995 24.531C1.77998 24.6911 1.97124 24.8165 2.18182 24.8994C2.39241 24.9823 2.61781 25.021 2.84399 25.013H22.174C22.4002 25.021 22.6256 24.9823 22.8361 24.8994C23.0467 24.8165 23.238 24.6911 23.398 24.531C23.5581 24.371 23.6834 24.1798 23.7664 23.9692C23.8493 23.7586 23.8879 23.5332 23.88 23.307V13.642H25.017V7.38801ZM22.743 11.368H16.489V7.95701H22.743V11.368ZM10.804 11.368V7.95701H14.215V11.368H10.804ZM14.215 13.642V22.742H10.802V13.642H14.215ZM17.455 2.32801C17.9128 2.45993 18.3006 2.76621 18.535 3.18101C18.6436 3.36835 18.7143 3.57525 18.7429 3.7899C18.7716 4.00455 18.7577 4.22274 18.702 4.43201C18.5915 4.79593 18.3662 5.11432 18.0598 5.33962C17.7534 5.56492 17.3823 5.68503 17.002 5.68201H14.613L15.238 3.52201C15.3936 3.08347 15.7067 2.71843 16.1164 2.49778C16.5261 2.27713 17.0032 2.21662 17.455 2.32801ZM6.31199 4.43201C6.25676 4.22254 6.24335 4.00425 6.27252 3.7896C6.30169 3.57494 6.37287 3.36814 6.48199 3.18101C6.71638 2.76621 7.10417 2.45993 7.56199 2.32801C8.0138 2.21662 8.49088 2.27713 8.90058 2.49778C9.31028 2.71843 9.62335 3.08347 9.77899 3.52201L10.404 5.68201H8.01799C7.63665 5.68634 7.26421 5.56683 6.95659 5.34143C6.64897 5.11604 6.42278 4.79692 6.31199 4.43201ZM2.27499 7.95701H8.52899V11.368H2.27499V7.95701ZM3.41199 13.642H8.52899V22.742H3.41199V13.642ZM21.605 22.742H16.489V13.642H21.602L21.605 22.742Z" fill="#242B4C"/>
</svg>
