<svg width="68" height="68" viewBox="0 0 68 68" fill="none" xmlns="http://www.w3.org/2000/svg">
<g filter="url(#filter0_d_1_173)">
<path d="M34 59C49.464 59 62 46.464 62 31C62 15.536 49.464 3 34 3C18.536 3 6 15.536 6 31C6 46.464 18.536 59 34 59Z" fill="#1B1F3B"/>
</g>
<path d="M32.5084 47.3333V44.3501C29.4008 44.002 26.7348 42.7158 24.5103 40.4912C22.2847 38.2657 20.998 35.5992 20.6499 32.4916H17.6667V29.5084H20.6499C20.998 26.4008 22.2847 23.7348 24.5103 21.5103C26.7348 19.2848 29.4008 17.998 32.5084 17.6499V14.6667H35.4916V17.6499C38.5992 17.998 41.2657 19.2848 43.4912 21.5103C45.7157 23.7348 47.002 26.4008 47.3501 29.5084H50.3333V32.4916H47.3501C47.002 35.5992 45.7157 38.2657 43.4912 40.4912C41.2657 42.7158 38.5992 44.002 35.4916 44.3501V47.3333H32.5084ZM34 41.4414C36.8838 41.4414 39.345 40.4221 41.3836 38.3836C43.4221 36.345 44.4414 33.8838 44.4414 31C44.4414 28.1162 43.4221 25.655 41.3836 23.6164C39.345 21.5779 36.8838 20.5586 34 20.5586C31.1162 20.5586 28.655 21.5779 26.6164 23.6164C24.5779 25.655 23.5586 28.1162 23.5586 31C23.5586 33.8838 24.5779 36.345 26.6164 38.3836C28.655 40.4221 31.1162 41.4414 34 41.4414Z" fill="white"/>
<circle cx="34" cy="31" r="3.5" fill="white"/>
<defs>
<filter id="filter0_d_1_173" x="0" y="0" width="68" height="68" filterUnits="userSpaceOnUse" color-interpolation-filters="sRGB">
<feFlood flood-opacity="0" result="BackgroundImageFix"/>
<feColorMatrix in="SourceAlpha" type="matrix" values="0 0 0 0 0 0 0 0 0 0 0 0 0 0 0 0 0 0 127 0" result="hardAlpha"/>
<feOffset dy="3"/>
<feGaussianBlur stdDeviation="3"/>
<feColorMatrix type="matrix" values="0 0 0 0 0 0 0 0 0 0 0 0 0 0 0 0 0 0 0.161 0"/>
<feBlend mode="normal" in2="BackgroundImageFix" result="effect1_dropShadow_1_173"/>
<feBlend mode="normal" in="SourceGraphic" in2="effect1_dropShadow_1_173" result="shape"/>
</filter>
</defs>
</svg>
