<svg width="20" height="16" viewBox="0 0 20 16" fill="none" xmlns="http://www.w3.org/2000/svg">
<path d="M7.58298 12.651L15.76 2.42501C16.092 2.01001 16.42 1.59299 16.76 1.18099C16.8653 1.02496 17.0016 0.892303 17.1605 0.79128C17.3194 0.690257 17.4973 0.62306 17.6833 0.593831C17.8693 0.564603 18.0593 0.573997 18.2415 0.621419C18.4237 0.668842 18.5941 0.753273 18.7423 0.869466C18.8904 0.98566 19.0131 1.13112 19.1025 1.29677C19.192 1.46243 19.2464 1.64476 19.2623 1.83236C19.2782 2.01995 19.2553 2.20881 19.195 2.38717C19.1348 2.56552 19.0384 2.72955 18.912 2.86904C17.742 4.36004 16.553 5.83701 15.369 7.31801C13.245 9.97735 11.1203 12.6363 8.99496 15.295C8.87704 15.4862 8.71507 15.6463 8.52255 15.762C8.33004 15.8777 8.11253 15.9455 7.8884 15.9599C7.66426 15.9743 7.43995 15.9348 7.23422 15.8447C7.02849 15.7546 6.8473 15.6165 6.7059 15.442C4.77723 13.5514 2.85128 11.6584 0.927947 9.76302C0.755853 9.63123 0.617055 9.4609 0.522795 9.26571C0.428536 9.07051 0.381428 8.85591 0.385222 8.63918C0.389016 8.42245 0.443613 8.20962 0.544646 8.01784C0.645679 7.82607 0.790286 7.66068 0.966887 7.53499C1.20861 7.34863 1.50779 7.25249 1.81283 7.26308C2.11788 7.27367 2.40969 7.39036 2.63791 7.59304C3.09491 7.98604 3.52691 8.40904 3.94491 8.84304C5.15091 10.094 6.34598 11.356 7.58298 12.651Z" fill="#2D2A36"/>
</svg>
