<svg width="25" height="23" viewBox="0 0 25 23" fill="none" xmlns="http://www.w3.org/2000/svg">
<path d="M2.20303 20.6033C2.01603 20.6033 1.85002 20.6033 1.68302 20.6033C1.45897 20.6095 1.23603 20.5696 1.02802 20.4861C0.820015 20.4027 0.631361 20.2774 0.473764 20.118C0.316167 19.9586 0.192987 19.7684 0.111841 19.5595C0.0306945 19.3506 -0.00668817 19.1272 0.00202344 18.9033C-0.00197656 17.5073 -0.00197656 16.1116 0.00202344 14.7162C-0.0158739 14.3406 0.0980637 13.9705 0.324121 13.67C0.550179 13.3694 0.874152 13.1573 1.24003 13.0702C1.39615 13.0301 1.55684 13.0106 1.71803 13.0123C4.25136 13.0123 6.78236 13.0123 9.31103 13.0123C9.69638 12.99 10.0769 13.1066 10.3837 13.3409C10.6904 13.5752 10.9031 13.9116 10.983 14.2892C11.014 14.4348 11.0274 14.5835 11.023 14.7322C11.023 16.1212 11.007 17.5113 11.031 18.9003C11.035 19.1263 10.9933 19.3507 10.9085 19.5602C10.8237 19.7698 10.6975 19.9601 10.5375 20.1197C10.3775 20.2793 10.187 20.405 9.97726 20.4893C9.76755 20.5736 9.543 20.6148 9.31703 20.6103C7.97103 20.5883 6.62503 20.6102 5.27903 20.6022C5.22131 20.5995 5.16365 20.6089 5.10975 20.6297C5.05585 20.6505 5.0069 20.6825 4.96603 20.7233C4.37869 21.276 3.78768 21.8243 3.19302 22.3683C3.07456 22.4774 2.94165 22.5695 2.79803 22.6423C2.75107 22.6746 2.69664 22.6945 2.63987 22.7C2.58311 22.7055 2.52587 22.6966 2.47355 22.6739C2.42123 22.6512 2.37556 22.6155 2.34083 22.5702C2.3061 22.525 2.28345 22.4717 2.27502 22.4153C2.23207 22.2668 2.20953 22.113 2.20802 21.9583C2.19902 21.5803 2.20802 21.2013 2.20802 20.8233L2.20303 20.6033ZM3.90302 16.9243C3.90488 16.8405 3.89011 16.7573 3.85958 16.6793C3.82905 16.6012 3.78336 16.53 3.72515 16.4698C3.66694 16.4095 3.59738 16.3614 3.52046 16.3282C3.44354 16.295 3.36079 16.2773 3.27702 16.2763C3.19481 16.2748 3.11312 16.2896 3.03662 16.3198C2.96011 16.3499 2.89028 16.3947 2.83113 16.4518C2.77197 16.509 2.72465 16.5771 2.69186 16.6525C2.65907 16.7279 2.64146 16.8091 2.64002 16.8913C2.63803 16.9749 2.65259 17.0582 2.68286 17.1362C2.71313 17.2142 2.75852 17.2854 2.81642 17.3458C2.87431 17.4062 2.94357 17.4545 3.02021 17.4881C3.09686 17.5216 3.17937 17.5398 3.26303 17.5413C3.42964 17.5425 3.59016 17.4786 3.71057 17.3635C3.83097 17.2483 3.90179 17.0908 3.90803 16.9243H3.90302ZM8.37502 16.8923C8.37239 16.7268 8.30432 16.5691 8.18569 16.4537C8.06707 16.3382 7.90754 16.2744 7.74203 16.2763C7.61612 16.2763 7.49308 16.3139 7.38865 16.3842C7.28422 16.4546 7.20313 16.5544 7.15576 16.6711C7.10839 16.7877 7.09689 16.9159 7.12272 17.0391C7.14855 17.1624 7.21056 17.2752 7.30079 17.363C7.39103 17.4508 7.50539 17.5097 7.62928 17.5322C7.75317 17.5546 7.88094 17.5396 7.99627 17.4891C8.1116 17.4385 8.20924 17.3548 8.27671 17.2485C8.34418 17.1422 8.37841 17.0181 8.37502 16.8923ZM6.14103 16.8923C6.13763 16.7267 6.0694 16.5692 5.95103 16.4534C5.83266 16.3377 5.67358 16.273 5.50802 16.2733C5.34229 16.2755 5.18383 16.3417 5.0657 16.4579C4.94757 16.5742 4.8789 16.7316 4.87402 16.8973C4.87706 17.0659 4.94513 17.2269 5.06402 17.3465C5.1829 17.4661 5.34341 17.5351 5.51202 17.5392C5.681 17.5364 5.84209 17.4673 5.96066 17.3469C6.07922 17.2264 6.14578 17.0643 6.14602 16.8953L6.14103 16.8923Z" fill="#1B1F3B"/>
<path d="M24.1031 9.40428C23.4628 8.84754 22.7549 8.37379 21.9961 7.99428C21.3641 7.69428 21.1331 7.69428 20.6861 8.01928C20.3141 8.28828 20.0731 8.53828 19.6451 8.44428C18.8453 8.08278 18.1313 7.55586 17.5501 6.89828C16.8921 6.31843 16.3654 5.60488 16.0051 4.80528C15.9141 4.37428 16.1641 4.13628 16.4301 3.76428C16.7521 3.31728 16.7611 3.08628 16.4551 2.45428C16.0791 1.69428 15.6069 0.985796 15.0501 0.346278C14.5901 -0.113723 14.4871 -0.0137226 14.2341 0.0772774C13.9734 0.187563 13.7234 0.321454 13.4871 0.477278C13.1002 0.697174 12.787 1.02668 12.5871 1.42428C12.4091 1.80928 12.2021 2.52428 13.2531 4.39428C14.0278 5.82486 15.009 7.13356 16.1651 8.27828C17.3123 9.43708 18.6237 10.4209 20.0571 11.1983C21.9271 12.2483 22.6431 12.0423 23.0271 11.8643C23.426 11.6663 23.756 11.3526 23.9741 10.9643C24.1299 10.728 24.2638 10.4779 24.3741 10.2173C24.4621 9.96628 24.5651 9.86328 24.1031 9.40428Z" fill="#1B1F3B"/>
<path d="M2.43799 1.5083L22.438 21.5083" stroke="#1B1F3B"/>
</svg>
