<svg width="16" height="27" viewBox="0 0 16 27" fill="none" xmlns="http://www.w3.org/2000/svg">
<path d="M8.32884 11.723C5.07384 10.877 4.02884 10.01 4.02884 8.64797C4.02884 7.08497 5.46984 5.98797 7.89984 5.98797C10.4518 5.98797 11.3998 7.20697 11.4838 8.99897H14.6528C14.6217 7.70098 14.149 6.45237 13.3128 5.4592C12.4765 4.46602 11.3266 3.78763 10.0528 3.53597V0.396973H5.75284V3.49697C2.97184 4.10597 0.734844 5.89697 0.734844 8.67297C0.734844 11.985 3.48084 13.634 7.47384 14.594C11.0658 15.454 11.7738 16.709 11.7738 18.056C11.7738 19.038 11.0738 20.615 7.90284 20.615C4.94984 20.615 3.78084 19.289 3.62984 17.604H0.464844C0.643844 20.744 2.98784 22.504 5.74784 23.095V26.206H10.0478V23.121C12.8368 22.583 15.0658 20.97 15.0658 18.021C15.0658 13.964 11.5818 12.573 8.32684 11.721L8.32884 11.723Z" fill="black" stroke="white" stroke-width="0.3"/>
</svg>
