<svg width="36" height="35" viewBox="0 0 36 35" fill="none" xmlns="http://www.w3.org/2000/svg">
<path fill-rule="evenodd" clip-rule="evenodd" d="M7.85484 5.84824C6.51548 6.53559 5.12946 7.24612 3.42188 8.12012C1.44851 9.13056 0.358099 12.4129 1.59632 14.0952C1.63133 14.1442 1.66763 14.1918 1.70264 14.2394C3.22091 12.167 4.42542 10.5259 5.88535 8.53588C6.52586 7.66188 7.19488 6.75055 7.85484 5.84824Z" fill="#FD2B72"/>
<path fill-rule="evenodd" clip-rule="evenodd" d="M7.84447 22.583C5.58327 19.5118 3.82383 17.1202 1.70265 14.2394C1.31757 14.7646 0.911744 15.3181 0.476098 15.9128C-0.762121 17.6029 0.617423 20.929 2.29647 21.7695C5.30969 23.2781 7.32066 24.2846 10.2016 25.7289C9.39257 24.6631 8.60037 23.6127 7.84318 22.5843L7.84447 22.583Z" fill="#2FC8D6"/>
<path fill-rule="evenodd" clip-rule="evenodd" d="M22.2143 31.7399C18.5722 29.916 15.0261 28.1422 11.5785 26.4161C11.0949 26.1741 10.6385 25.9463 10.2029 25.7274C11.9286 27.9993 13.7334 30.3382 15.4501 32.6705C16.9606 34.7223 19.4176 34.7378 21.1187 32.9151C21.4882 32.5186 21.8538 32.1273 22.2155 31.7412L22.2143 31.7399Z" fill="#FD2B72"/>
<path fill-rule="evenodd" clip-rule="evenodd" d="M28.5765 24.9293C26.6135 27.0313 24.4988 29.2955 22.2156 31.7411C22.5682 31.9175 22.9209 32.0951 23.2749 32.2714C25.3066 33.2883 27.4835 32.3718 28.0657 30.3085C28.7529 27.8705 29.4024 25.5665 30.0183 23.386C29.5464 23.8919 29.0653 24.4067 28.5765 24.9293Z" fill="#2FC8D6"/>
<path fill-rule="evenodd" clip-rule="evenodd" d="M31.0764 19.6288C30.7354 20.8388 30.3827 22.0899 30.0171 23.3861C31.5652 21.7282 33.0238 20.1656 34.3995 18.693C35.3888 17.6337 35.7168 16.2886 34.5084 14.9409C34.2789 14.6847 34.0494 14.4286 33.8212 14.1737C33.5282 13.8455 33.2196 13.5031 32.9032 13.1491C32.3302 15.1816 31.7221 17.3376 31.0764 19.6301V19.6288Z" fill="#FD2B72"/>
<path fill-rule="evenodd" clip-rule="evenodd" d="M28.0089 7.6851C29.4468 9.29022 31.2918 11.3484 32.9034 13.1479C33.0759 12.5352 33.2457 11.9341 33.4117 11.3446C33.7475 10.1552 33.3935 8.96456 31.8882 8.36474C31.5589 8.23344 31.2282 8.10215 30.9002 7.97086C29.6218 7.46242 28.2098 6.89992 26.8057 6.34128C27.2232 6.80724 27.6277 7.25904 28.0089 7.68381V7.6851Z" fill="#2FC8D6"/>
<path fill-rule="evenodd" clip-rule="evenodd" d="M22.4749 4.61887C23.7961 5.14404 25.2962 5.74259 26.8054 6.34241C25.3779 4.74888 23.8012 2.98929 22.5475 1.59012C22.3387 1.35714 22.1313 1.12545 21.9238 0.893754C20.8788 -0.273724 19.5783 -0.161739 18.3699 0.457398C17.4714 0.918211 16.547 1.3919 15.594 1.87974C17.8267 2.76919 20.2525 3.73457 22.4749 4.61887Z" fill="#FD2B72"/>
<path fill-rule="evenodd" clip-rule="evenodd" d="M26.8054 6.34231C25.2962 5.7412 23.7948 5.14394 22.4749 4.61877C20.2539 3.73447 17.828 2.76908 15.594 1.87964C14.2339 2.57729 12.8181 3.30327 11.3426 4.05885C10.1005 4.696 8.99451 5.26236 7.85483 5.84675C7.19359 6.74778 6.52586 7.66039 5.88535 8.53439C4.42672 10.5257 3.22221 12.1668 1.70264 14.2379C3.82382 17.1199 5.58325 19.5102 7.84446 22.5815C8.60166 23.6086 9.39256 24.6603 10.2029 25.7261C10.6399 25.9449 11.0962 26.1727 11.5786 26.4147C15.0274 28.1408 18.5722 29.9158 22.2143 31.7385C24.4975 29.2928 26.6122 27.0287 28.5752 24.9267C29.064 24.4028 29.5451 23.8892 30.017 23.3834C30.3826 22.0885 30.7353 20.836 31.0763 19.6261C31.722 17.3336 32.3301 15.1776 32.9032 13.1451C31.2915 11.3456 29.4465 9.2874 28.0086 7.68227C27.6287 7.2575 27.2229 6.8057 26.8054 6.33974V6.34231Z" fill="#200049"/>
<path fill-rule="evenodd" clip-rule="evenodd" d="M11.3427 4.05888C12.8182 3.3033 14.2341 2.57604 15.5942 1.87967C15.1287 1.69432 14.6723 1.51282 14.2276 1.33519C14.1109 1.28885 13.9942 1.24251 13.8775 1.19618C12.5667 0.674865 11.5826 0.761107 10.8941 1.70075C10.8034 1.82561 10.7113 1.95047 10.6193 2.07661C9.79075 3.20676 8.83129 4.51583 7.85498 5.84936C8.99466 5.26497 10.1006 4.69732 11.3427 4.06145V4.05888Z" fill="#2FC8D6"/>
</svg>
