<svg width="17" height="26" viewBox="0 0 17 26" fill="none" xmlns="http://www.w3.org/2000/svg">
<path d="M16.394 7.78704C16.3988 6.31775 15.983 4.87776 15.1959 3.63708C14.4088 2.39639 13.2832 1.40681 11.9518 0.785156C10.6205 0.163503 9.13915 -0.064267 7.68257 0.128735C6.226 0.321738 4.85506 0.927454 3.73159 1.87438C2.60812 2.8213 1.77903 4.06989 1.3422 5.47276C0.905363 6.87562 0.879026 8.37418 1.2663 9.79153C1.65356 11.2089 2.43827 12.4858 3.52777 13.4716C4.61727 14.4575 5.96609 15.111 7.41498 15.355V24.462C7.41019 24.6335 7.43982 24.8041 7.50212 24.9639C7.56442 25.1237 7.65812 25.2694 7.77768 25.3923C7.89725 25.5153 8.04025 25.613 8.19823 25.6797C8.35622 25.7465 8.52598 25.7809 8.69748 25.7809C8.86898 25.7809 9.03874 25.7465 9.19672 25.6797C9.35471 25.613 9.49771 25.5153 9.61727 25.3923C9.73684 25.2694 9.83054 25.1237 9.89284 24.9639C9.95513 24.8041 9.98477 24.6335 9.97998 24.462V15.355C11.7755 15.0648 13.4083 14.1428 14.5843 12.7553C15.7603 11.3678 16.402 9.60586 16.394 7.78704ZM8.69398 12.918C7.67916 12.918 6.68714 12.6171 5.84335 12.0533C4.99956 11.4895 4.34191 10.6882 3.95355 9.75059C3.5652 8.81302 3.46359 7.78135 3.66157 6.78603C3.85955 5.79072 4.34823 4.87646 5.06581 4.15888C5.7834 3.44129 6.69765 2.95261 7.69297 2.75463C8.68829 2.55665 9.71996 2.65826 10.6575 3.04662C11.5951 3.43497 12.3964 4.09262 12.9602 4.93641C13.5241 5.7802 13.825 6.77223 13.825 7.78704C13.825 9.14666 13.2854 10.4507 12.3246 11.4127C11.3639 12.3748 10.0606 12.9162 8.70098 12.918H8.69398Z" fill="#242B4C"/>
<path d="M9 10.001C10.1046 10.001 11 9.10561 11 8.00104C11 6.89647 10.1046 6.00104 9 6.00104C7.89543 6.00104 7 6.89647 7 8.00104C7 9.10561 7.89543 10.001 9 10.001Z" fill="#242B4C"/>
</svg>
