<svg width="32" height="31" viewBox="0 0 32 31" fill="none" xmlns="http://www.w3.org/2000/svg">
<path d="M16 31C24.5604 31 31.5 24.0604 31.5 15.5C31.5 6.93959 24.5604 0 16 0C7.43959 0 0.5 6.93959 0.5 15.5C0.5 24.0604 7.43959 31 16 31Z" fill="#242B4C"/>
<path d="M16.774 13.41C16.774 14.0213 16.5928 14.6189 16.2532 15.1272C15.9136 15.6355 15.4309 16.0316 14.8661 16.2656C14.3014 16.4996 13.68 16.5609 13.0804 16.4417C12.4808 16.3225 11.9301 16.0282 11.4977 15.596C11.0654 15.1638 10.7709 14.6132 10.6516 14.0136C10.5322 13.4141 10.5932 12.7926 10.827 12.2278C11.0608 11.663 11.4569 11.1802 11.965 10.8404C12.4732 10.5007 13.0707 10.3192 13.682 10.319C14.5018 10.319 15.288 10.6447 15.8677 11.2243C16.4474 11.804 16.773 12.5902 16.773 13.41H16.774Z" stroke="white"/>
<path d="M13.683 18.047C11.619 18.047 7.5 19.083 7.5 21.138V22.684H19.866V21.139C19.866 19.083 15.746 18.047 13.683 18.047ZM19.683 10.597L18.382 11.9C18.6984 12.3373 18.8687 12.8633 18.8687 13.403C18.8687 13.9427 18.6984 14.4687 18.382 14.906L19.682 16.212C20.0519 15.8443 20.3455 15.407 20.5458 14.9253C20.746 14.4437 20.849 13.9272 20.8488 13.4056C20.8486 12.884 20.7453 12.3675 20.5447 11.886C20.3441 11.4045 20.0502 10.9675 19.68 10.6L19.683 10.597ZM22.239 8L20.979 9.26C22.0121 10.3953 22.5846 11.875 22.5846 13.41C22.5846 14.945 22.0121 16.4247 20.979 17.56L22.239 18.82C22.9556 18.113 23.5245 17.2707 23.9129 16.342C24.3012 15.4133 24.5012 14.4166 24.5012 13.41C24.5012 12.4034 24.3012 11.4067 23.9129 10.478C23.5245 9.54932 22.9556 8.707 22.239 8V8Z" stroke="white"/>
</svg>
