<svg width="28" height="27" viewBox="0 0 28 27" fill="none" xmlns="http://www.w3.org/2000/svg">
<path d="M26.063 1.45399H17.619C17.4946 1.45399 17.3753 1.5034 17.2873 1.59136C17.1994 1.67931 17.15 1.7986 17.15 1.92299V10.367C17.1483 10.4604 17.175 10.5521 17.2263 10.6302C17.2777 10.7082 17.3514 10.7689 17.4379 10.8044C17.5243 10.8398 17.6195 10.8483 17.7108 10.8288C17.8022 10.8093 17.8856 10.7627 17.95 10.695L19.78 8.95899H26.066C26.1904 8.95899 26.3097 8.90958 26.3976 8.82162C26.4856 8.73367 26.535 8.61438 26.535 8.48999V1.92299C26.535 1.86115 26.5227 1.79991 26.499 1.74282C26.4752 1.68572 26.4404 1.63388 26.3965 1.59029C26.3527 1.5467 26.3006 1.51222 26.2434 1.48882C26.1861 1.46543 26.1248 1.45359 26.063 1.45399V1.45399Z" stroke="black" stroke-width="1.8"/>
<path d="M18.548 25.807H1V22.648C4.94859 20.6548 9.45645 20.0597 13.787 20.96C15.4432 21.304 17.0449 21.8719 18.548 22.648V25.807Z" stroke="#010101" stroke-width="1.8"/>
<path d="M9.77489 18.6159C10.8008 18.6159 11.8037 18.3117 12.6567 17.7417C13.5098 17.1717 14.1746 16.3616 14.5672 15.4137C14.9597 14.4658 15.0624 13.4229 14.8622 12.4166C14.6619 11.4104 14.1678 10.4862 13.4423 9.76083C12.7168 9.03545 11.7925 8.54152 10.7862 8.34149C9.77997 8.14146 8.737 8.24432 7.78922 8.63707C6.84144 9.02981 6.03141 9.6948 5.46157 10.5479C4.89174 11.4011 4.58769 12.404 4.58789 13.4299C4.58789 14.8056 5.13438 16.125 6.10713 17.0977C7.07988 18.0705 8.39921 18.6169 9.77489 18.6169V18.6159Z" stroke="black" stroke-width="1.8"/>
</svg>
