<svg width="27" height="29" viewBox="0 0 27 29" fill="none" xmlns="http://www.w3.org/2000/svg">
<path d="M20.293 27.6039H1V24.1309C5.34116 21.9399 10.2971 21.2859 15.058 22.2759C16.8788 22.6543 18.6396 23.2787 20.292 24.1319L20.293 27.6039Z" stroke="#010101" stroke-width="1.8"/>
<path d="M10.6441 19.6939C11.7714 19.6939 12.8735 19.3596 13.8108 18.7333C14.7482 18.107 15.4788 17.2168 15.9102 16.1752C16.3416 15.1337 16.4545 13.9876 16.2346 12.8819C16.0146 11.7762 15.4718 10.7606 14.6746 9.96344C13.8774 9.16628 12.8618 8.62341 11.7561 8.40347C10.6504 8.18354 9.50434 8.29642 8.4628 8.72783C7.42126 9.15925 6.53104 9.88984 5.90471 10.8272C5.27839 11.7646 4.94409 12.8666 4.94409 13.9939C4.94409 15.5057 5.54463 16.9555 6.61358 18.0245C7.68254 19.0934 9.13236 19.6939 10.6441 19.6939V19.6939Z" stroke="black" stroke-width="1.8"/>
<path d="M22.917 4.41298L25.835 1.52297C25.9303 1.4255 25.9881 1.29748 25.9982 1.16152C26.0082 1.02556 25.9699 0.890417 25.89 0.779975C25.8454 0.7136 25.7863 0.658321 25.717 0.618388C25.6478 0.578454 25.5703 0.554929 25.4905 0.549618C25.4107 0.544306 25.3308 0.557351 25.2569 0.58775C25.1829 0.618149 25.117 0.665093 25.064 0.724974L22.146 3.64297L19.228 0.724974C19.175 0.665093 19.1091 0.618149 19.0351 0.58775C18.9612 0.557351 18.8813 0.544306 18.8015 0.549618C18.7217 0.554929 18.6442 0.578454 18.575 0.618388C18.5057 0.658321 18.4466 0.7136 18.402 0.779975C18.3221 0.890417 18.2837 1.02556 18.2938 1.16152C18.3039 1.29748 18.3617 1.4255 18.457 1.52297L21.375 4.41298L18.457 7.30298C18.3617 7.40045 18.3039 7.52847 18.2938 7.66443C18.2837 7.80039 18.3221 7.93553 18.402 8.04598C18.4466 8.11235 18.5057 8.16763 18.575 8.20756C18.6442 8.2475 18.7217 8.27102 18.8015 8.27633C18.8813 8.28164 18.9612 8.2686 19.0351 8.2382C19.1091 8.2078 19.175 8.16086 19.228 8.10097L22.147 5.18898L25.065 8.10697C25.118 8.16686 25.1839 8.2138 25.2579 8.2442C25.3318 8.2746 25.4117 8.28764 25.4915 8.28233C25.5713 8.27702 25.6488 8.25349 25.718 8.21356C25.7873 8.17363 25.8464 8.11835 25.891 8.05197C25.9709 7.94153 26.0092 7.80639 25.9992 7.67043C25.9891 7.53447 25.9313 7.40644 25.836 7.30897L22.917 4.41298Z" fill="black" stroke="black"/>
</svg>
