<svg width="30" height="30" viewBox="0 0 30 30" fill="none" xmlns="http://www.w3.org/2000/svg">
<path d="M15 30C23.2843 30 30 23.2843 30 15C30 6.71573 23.2843 0 15 0C6.71573 0 0 6.71573 0 15C0 23.2843 6.71573 30 15 30Z" fill="#D1DEF4"/>
<g filter="url(#filter0_d_1_148)">
<path d="M15.001 22.004C18.867 22.004 22.001 18.87 22.001 15.004C22.001 11.138 18.867 8.00401 15.001 8.00401C11.135 8.00401 8.001 11.138 8.001 15.004C8.001 18.87 11.135 22.004 15.001 22.004Z" fill="#4285F4"/>
<path d="M15.001 21.504C18.5908 21.504 21.501 18.5939 21.501 15.004C21.501 11.4142 18.5908 8.50401 15.001 8.50401C11.4111 8.50401 8.501 11.4142 8.501 15.004C8.501 18.5939 11.4111 21.504 15.001 21.504Z" stroke="white"/>
</g>
<path d="M21.7468 8.51386L16.4252 5.92117L20.7064 3.89156L21.7468 8.51386Z" fill="#4285F4"/>
<path d="M20.3559 4.61112L17.5795 5.92733L21.0305 7.6087L20.3559 4.61112ZM21.057 3.17201L22.463 9.41901L15.271 5.91501L21.057 3.17201Z" fill="#4285F4"/>
<defs>
<filter id="filter0_d_1_148" x="4.001" y="4.00401" width="22" height="22" filterUnits="userSpaceOnUse" color-interpolation-filters="sRGB">
<feFlood flood-opacity="0" result="BackgroundImageFix"/>
<feColorMatrix in="SourceAlpha" type="matrix" values="0 0 0 0 0 0 0 0 0 0 0 0 0 0 0 0 0 0 127 0" result="hardAlpha"/>
<feOffset/>
<feGaussianBlur stdDeviation="2"/>
<feColorMatrix type="matrix" values="0 0 0 0 0 0 0 0 0 0 0 0 0 0 0 0 0 0 0.161 0"/>
<feBlend mode="normal" in2="BackgroundImageFix" result="effect1_dropShadow_1_148"/>
<feBlend mode="normal" in="SourceGraphic" in2="effect1_dropShadow_1_148" result="shape"/>
</filter>
</defs>
</svg>
