<svg width="21" height="20" viewBox="0 0 21 20" fill="none" xmlns="http://www.w3.org/2000/svg">
<path d="M11 19C15.9706 19 20 14.9706 20 10C20 5.02944 15.9706 1 11 1C6.02944 1 2 5.02944 2 10C2 14.9706 6.02944 19 11 19Z" fill="#D1DEF4"/>
<g filter="url(#filter0_d_1_387)">
<path d="M10.998 16C14.3117 16 16.998 13.3137 16.998 10C16.998 6.68629 14.3117 4 10.998 4C7.68429 4 4.998 6.68629 4.998 10C4.998 13.3137 7.68429 16 10.998 16Z" fill="#4285F4"/>
<path d="M10.998 15.5C14.0356 15.5 16.498 13.0376 16.498 10C16.498 6.96243 14.0356 4.5 10.998 4.5C7.96043 4.5 5.498 6.96243 5.498 10C5.498 13.0376 7.96043 15.5 10.998 15.5Z" stroke="white"/>
</g>
<defs>
<filter id="filter0_d_1_387" x="0.998001" y="0" width="20" height="20" filterUnits="userSpaceOnUse" color-interpolation-filters="sRGB">
<feFlood flood-opacity="0" result="BackgroundImageFix"/>
<feColorMatrix in="SourceAlpha" type="matrix" values="0 0 0 0 0 0 0 0 0 0 0 0 0 0 0 0 0 0 127 0" result="hardAlpha"/>
<feOffset/>
<feGaussianBlur stdDeviation="2"/>
<feColorMatrix type="matrix" values="0 0 0 0 0 0 0 0 0 0 0 0 0 0 0 0 0 0 0.161 0"/>
<feBlend mode="normal" in2="BackgroundImageFix" result="effect1_dropShadow_1_387"/>
<feBlend mode="normal" in="SourceGraphic" in2="effect1_dropShadow_1_387" result="shape"/>
</filter>
</defs>
</svg>
