<svg width="31" height="55" viewBox="0 0 31 55" fill="none" xmlns="http://www.w3.org/2000/svg">
<path d="M15.5 54.282C18.6961 54.282 21.287 51.6911 21.287 48.495C21.287 45.2989 18.6961 42.708 15.5 42.708C12.3039 42.708 9.71301 45.2989 9.71301 48.495C9.71301 51.6911 12.3039 54.282 15.5 54.282Z" fill="#1B1F3B"/>
<path d="M15.403 49.513C15.9652 49.513 16.421 49.0572 16.421 48.495C16.421 47.9328 15.9652 47.477 15.403 47.477C14.8408 47.477 14.385 47.9328 14.385 48.495C14.385 49.0572 14.8408 49.513 15.403 49.513Z" fill="#CADC31"/>
<path d="M15.5 31C24.0604 31 31 24.0604 31 15.5C31 6.93959 24.0604 0 15.5 0C6.93959 0 0 6.93959 0 15.5C0 24.0604 6.93959 31 15.5 31Z" fill="#1B1F3B"/>
<path d="M15.844 35.6741C15.7537 35.816 15.629 35.9327 15.4816 36.0136C15.3341 36.0945 15.1687 36.137 15.0005 36.137C14.8323 36.137 14.6668 36.0945 14.5194 36.0136C14.372 35.9327 14.2473 35.816 14.157 35.6741L8.97899 27.5371C8.88278 27.386 8.82894 27.2118 8.8231 27.0327C8.81726 26.8536 8.85963 26.6763 8.94579 26.5192C9.03194 26.3621 9.15872 26.2311 9.31285 26.1397C9.46699 26.0484 9.64283 26.0002 9.82199 26.0001H20.178C20.3572 26 20.5332 26.0481 20.6875 26.1394C20.8418 26.2306 20.9687 26.3617 21.0549 26.5188C21.1412 26.6759 21.1837 26.8533 21.1779 27.0324C21.1721 27.2116 21.1182 27.3859 21.022 27.5371L15.844 35.6741Z" fill="#1B1F3B"/>
<path d="M15.5 19C17.433 19 19 17.433 19 15.5C19 13.567 17.433 12 15.5 12C13.567 12 12 13.567 12 15.5C12 17.433 13.567 19 15.5 19Z" fill="white"/>
</svg>
