<svg width="31" height="31" viewBox="0 0 31 31" fill="none" xmlns="http://www.w3.org/2000/svg">
<path d="M15.5 31C24.0604 31 31 24.0604 31 15.5C31 6.93959 24.0604 0 15.5 0C6.93959 0 0 6.93959 0 15.5C0 24.0604 6.93959 31 15.5 31Z" fill="#CADC31"/>
<path d="M23.049 13.551C23.049 19.424 15.498 24.458 15.498 24.458C15.498 24.458 7.949 19.425 7.949 13.551C7.93269 12.5492 8.11593 11.5541 8.48803 10.6238C8.86014 9.69355 9.41366 8.84661 10.1164 8.13238C10.8191 7.41815 11.6569 6.85092 12.581 6.46372C13.5051 6.07653 14.497 5.87712 15.499 5.87712C16.501 5.87712 17.4929 6.07653 18.417 6.46372C19.3411 6.85092 20.1789 7.41815 20.8816 8.13238C21.5843 8.84661 22.1379 9.69355 22.51 10.6238C22.8821 11.5541 23.0653 12.5492 23.049 13.551V13.551Z" stroke="#242B4C" stroke-width="1.8" stroke-linecap="round" stroke-linejoin="round"/>
<path d="M18.017 13.551C18.017 14.0488 17.8694 14.5355 17.5928 14.9494C17.3163 15.3633 16.9232 15.6859 16.4632 15.8764C16.0033 16.0669 15.4972 16.1168 15.009 16.0196C14.5207 15.9225 14.0723 15.6828 13.7202 15.3308C13.3682 14.9788 13.1285 14.5303 13.0314 14.0421C12.9343 13.5538 12.9841 13.0477 13.1746 12.5878C13.3651 12.1279 13.6877 11.7348 14.1017 11.4582C14.5156 11.1816 15.0022 11.034 15.5 11.034C16.1676 11.034 16.8078 11.2992 17.2798 11.7712C17.7518 12.2433 18.017 12.8835 18.017 13.551Z" stroke="#242B4C" stroke-width="1.8" stroke-linecap="round" stroke-linejoin="round"/>
</svg>
