<svg width="27" height="27" viewBox="0 0 27 27" fill="none" xmlns="http://www.w3.org/2000/svg">
<path d="M13.65 1C11.1481 1 8.70232 1.74191 6.62204 3.13191C4.54176 4.52191 2.92038 6.49757 1.96293 8.80905C1.00548 11.1205 0.754969 13.664 1.24307 16.1179C1.73117 18.5718 2.93597 20.8258 4.7051 22.5949C6.47424 24.364 8.72825 25.5688 11.1821 26.0569C13.636 26.545 16.1795 26.2945 18.491 25.3371C20.8024 24.3796 22.7781 22.7582 24.1681 20.678C25.5581 18.5977 26.3 16.1519 26.3 13.65C26.2987 10.2954 24.9655 7.07861 22.5934 4.70656C20.2214 2.33451 17.0046 1.00133 13.65 1ZM13.65 23.77C12.3209 23.7704 11.0048 23.5089 9.77678 23.0005C8.54879 22.492 7.43301 21.7466 6.49321 20.8068C5.5534 19.867 4.80798 18.7512 4.29954 17.5232C3.7911 16.2952 3.52961 14.9791 3.53001 13.65C3.52545 11.4018 4.27864 9.21757 5.66801 7.45L19.848 21.632C18.081 23.0209 15.8976 23.7741 13.65 23.77ZM21.632 19.849L7.45101 5.668C9.21857 4.27864 11.4028 3.52545 13.651 3.53C14.98 3.52974 16.296 3.79133 17.5239 4.29982C18.7518 4.80832 19.8675 5.55376 20.8072 6.49355C21.7469 7.43335 22.4922 8.54908 23.0006 9.77701C23.5089 11.0049 23.7704 12.321 23.77 13.65C23.7741 15.8976 23.0209 18.081 21.632 19.848V19.849Z" fill="black" stroke="white" stroke-width="0.2"/>
</svg>
