<svg width="28" height="28" viewBox="0 0 28 28" fill="none" xmlns="http://www.w3.org/2000/svg">
<path d="M13.571 18.4771C13.1944 18.4725 12.8348 18.319 12.571 18.0501L12.357 17.8361C12.357 17.7651 12.286 17.6941 12.215 17.6221C12.144 17.5501 12.215 17.4081 12.144 17.3371V17.0521C12.1486 16.6754 12.3021 16.3158 12.571 16.0521C12.6979 15.9139 12.852 15.8036 13.0237 15.7281C13.1955 15.6526 13.381 15.6136 13.5685 15.6136C13.7561 15.6136 13.9416 15.6526 14.1133 15.7281C14.2851 15.8036 14.4392 15.9139 14.566 16.0521C14.835 16.3158 14.9885 16.6754 14.993 17.0521V17.3371C14.922 17.4081 14.922 17.4791 14.851 17.6221C14.78 17.7651 14.78 17.7641 14.78 17.8361L14.566 18.0501C14.3035 18.3178 13.946 18.4712 13.571 18.4771Z" fill="black"/>
<path d="M13.5711 14.203C13.2921 14.1994 13.0202 14.1141 12.7893 13.9574C12.5583 13.8008 12.3785 13.5798 12.272 13.3219C12.1655 13.064 12.1371 12.7805 12.1902 12.5065C12.2434 12.2326 12.3758 11.9803 12.5711 11.781C13.032 11.3955 13.5645 11.1049 14.1381 10.926L14.3521 10.784C14.7791 10.6522 15.144 10.3705 15.3796 9.9908C15.6152 9.61112 15.7056 9.15905 15.6341 8.71796C15.5516 8.32157 15.3508 7.95953 15.0581 7.67974C14.7655 7.39994 14.3948 7.21555 13.9951 7.15096C13.5479 7.05357 13.0815 7.09747 12.6604 7.27661C12.2392 7.45574 11.8841 7.76127 11.6441 8.15096C11.5608 8.32021 11.4447 8.47124 11.3025 8.59527C11.1604 8.7193 10.995 8.81388 10.816 8.87351C10.6371 8.93314 10.448 8.95663 10.2599 8.94263C10.0718 8.92864 9.88827 8.87742 9.72009 8.79196C9.38632 8.59695 9.14072 8.2806 9.03452 7.90891C8.92833 7.53722 8.96972 7.13887 9.15009 6.79696C9.68038 5.86895 10.4873 5.12975 11.4581 4.68262C12.4289 4.23549 13.5152 4.10275 14.5651 4.30296C15.5194 4.4988 16.3968 4.96599 17.092 5.64842C17.7872 6.33084 18.2706 7.19948 18.4841 8.14996C18.6642 9.22946 18.4735 10.3381 17.9431 11.2954C17.4127 12.2528 16.5738 13.0023 15.5631 13.422H15.2781L14.5661 13.778C14.2881 14.0253 13.937 14.1752 13.5661 14.205L13.5711 14.203Z" fill="black"/>
<path d="M25.2561 1.46802H2.27706C1.93838 1.46802 1.61357 1.60256 1.37409 1.84204C1.1346 2.08153 1.00006 2.40634 1.00006 2.74502V25.724C0.997532 25.9766 1.07072 26.2241 1.21018 26.4347C1.34965 26.6452 1.54899 26.8092 1.78252 26.9054C2.01604 27.0016 2.27303 27.0256 2.52034 26.9744C2.76766 26.9232 2.99396 26.7991 3.17006 26.618L8.14906 21.895H25.2561C25.5947 21.895 25.9196 21.7605 26.159 21.521C26.3985 21.2815 26.5331 20.9567 26.5331 20.618V2.74502C26.5331 2.40634 26.3985 2.08153 26.159 1.84204C25.9196 1.60256 25.5947 1.46802 25.2561 1.46802V1.46802Z" stroke="black" stroke-width="2"/>
</svg>
