<svg width="25" height="24" viewBox="0 0 25 24" fill="none" xmlns="http://www.w3.org/2000/svg">
<path d="M16.881 14.324C18.2404 12.5769 18.8518 10.3621 18.581 8.16499C18.3293 6.21751 17.4178 4.41508 15.9985 3.05801C14.5792 1.70094 12.7378 0.871183 10.781 0.706994C9.67161 0.595371 8.55115 0.703341 7.48353 1.02474C6.41592 1.34614 5.42206 1.87468 4.55871 2.58017C3.69536 3.28566 2.97941 4.1543 2.45176 5.13648C1.92411 6.11866 1.59508 7.19515 1.48345 8.30449C1.37183 9.41384 1.4798 10.5343 1.8012 11.6019C2.1226 12.6695 2.65113 13.6634 3.35663 14.5267C4.06212 15.3901 4.93076 16.106 5.91294 16.6337C6.89512 17.1613 7.97161 17.4904 9.08095 17.602C11.2863 17.8747 13.5119 17.2878 15.296 15.963L22.359 22.969C22.4596 23.0785 22.5818 23.166 22.718 23.2258C22.8541 23.2856 23.0012 23.3165 23.15 23.3165C23.2987 23.3165 23.4458 23.2856 23.5819 23.2258C23.7181 23.166 23.8404 23.0785 23.941 22.969C24.0505 22.8684 24.1379 22.7461 24.1978 22.61C24.2576 22.4738 24.2885 22.3267 24.2885 22.178C24.2885 22.0293 24.2576 21.8822 24.1978 21.746C24.1379 21.6098 24.0505 21.4876 23.941 21.387L16.881 14.324ZM11.174 15.34C10.1928 15.5002 9.18758 15.4228 8.24258 15.1141C7.29758 14.8055 6.4404 14.2747 5.74301 13.5662C5.04561 12.8577 4.52834 11.9923 4.23462 11.0426C3.94089 10.0928 3.87928 9.08647 4.05495 8.10799C4.26222 6.84931 4.85887 5.68727 5.76097 4.78535C6.66307 3.88343 7.82523 3.28701 9.08395 3.07999C10.0661 2.89844 11.0776 2.95844 12.0313 3.25482C12.9851 3.55121 13.8524 4.07509 14.5586 4.7813C15.2649 5.48752 15.7887 6.35488 16.0851 7.30863C16.3815 8.26238 16.4415 9.2739 16.26 10.256C16.0359 11.5227 15.4277 12.6899 14.5179 13.5993C13.6082 14.5087 12.4407 15.1164 11.174 15.34Z" fill="#242B4C" stroke="#242B4C"/>
</svg>
