<svg width="4" height="36" viewBox="0 0 4 36" fill="none" xmlns="http://www.w3.org/2000/svg">
<path d="M2 4C3.10457 4 4 3.10457 4 2C4 0.89543 3.10457 0 2 0C0.89543 0 0 0.89543 0 2C0 3.10457 0.89543 4 2 4Z" fill="#707070"/>
<path d="M2 28C3.10457 28 4 27.1046 4 26C4 24.8954 3.10457 24 2 24C0.89543 24 0 24.8954 0 26C0 27.1046 0.89543 28 2 28Z" fill="#707070"/>
<path d="M2 12C3.10457 12 4 11.1046 4 10C4 8.89543 3.10457 8 2 8C0.89543 8 0 8.89543 0 10C0 11.1046 0.89543 12 2 12Z" fill="#707070"/>
<path d="M2 36C3.10457 36 4 35.1046 4 34C4 32.8954 3.10457 32 2 32C0.89543 32 0 32.8954 0 34C0 35.1046 0.89543 36 2 36Z" fill="#707070"/>
<path d="M2 20C3.10457 20 4 19.1046 4 18C4 16.8954 3.10457 16 2 16C0.89543 16 0 16.8954 0 18C0 19.1046 0.89543 20 2 20Z" fill="#707070"/>
</svg>
