<svg width="15" height="17" viewBox="0 0 15 17" fill="none" xmlns="http://www.w3.org/2000/svg">
<path d="M11.7199 4.972C13.0929 4.972 14.2059 3.85898 14.2059 2.486C14.2059 1.11302 13.0929 0 11.7199 0C10.3469 0 9.23389 1.11302 9.23389 2.486C9.23389 3.85898 10.3469 4.972 11.7199 4.972Z" fill="#1B1F3B"/>
<path d="M2.486 11.009C3.85898 11.009 4.972 9.89597 4.972 8.52299C4.972 7.15001 3.85898 6.03699 2.486 6.03699C1.11302 6.03699 0 7.15001 0 8.52299C0 9.89597 1.11302 11.009 2.486 11.009Z" fill="#1B1F3B"/>
<path d="M11.7199 16.692C13.0929 16.692 14.2059 15.579 14.2059 14.206C14.2059 12.833 13.0929 11.72 11.7199 11.72C10.3469 11.72 9.23389 12.833 9.23389 14.206C9.23389 15.579 10.3469 16.692 11.7199 16.692Z" fill="#1B1F3B"/>
<path d="M11.4281 15.006L1.52808 8.53601L11.4121 1.69299L12.0191 2.56897L3.43608 8.51099L12.0071 14.111L11.4281 15.006Z" fill="#1B1F3B"/>
</svg>
