<svg width="29" height="31" viewBox="0 0 29 31" fill="none" xmlns="http://www.w3.org/2000/svg">
<g style="mix-blend-mode:multiply" opacity="0.14">
<path d="M16.3689 21.6681L15.3322 21.2402L23.8234 10.2496C24.3172 9.61084 25.3058 7.45094 24.811 6.80759C23.2025 4.70722 21.0739 3.06284 18.6354 2.03689C17.8902 1.72592 16.0493 3.21988 15.5537 3.86105L7.06374 14.85L6.38723 13.9558C6.37567 13.9403 6.36067 13.9277 6.34342 13.919C6.32617 13.9103 6.30713 13.9057 6.2878 13.9055C6.26847 13.9054 6.24938 13.9098 6.23202 13.9183C6.21466 13.9268 6.19951 13.9392 6.18775 13.9545C6.12656 14.0351 6.08764 14.1303 6.07492 14.2307C6.06219 14.331 6.07611 14.433 6.11527 14.5262L6.53723 15.5306L4.28411 18.4462C3.61573 19.3117 2.88717 21.3443 3.44253 22.2863C4.68726 24.3959 6.69463 25.9469 9.05007 26.619C10.1026 26.921 11.885 25.7024 12.551 24.8351L14.8033 21.9189L15.8832 22.0749C15.9847 22.09 16.0883 22.0776 16.1834 22.0391C16.2785 22.0006 16.3615 21.9374 16.4239 21.856C16.4346 21.8406 16.4417 21.823 16.4447 21.8044C16.4477 21.7859 16.4465 21.767 16.4412 21.7489C16.436 21.7309 16.4267 21.7143 16.4142 21.7003C16.4017 21.6863 16.3862 21.6753 16.3689 21.6681Z" fill="#525252"/>
</g>
<path d="M19.0283 3.89609C21.4668 4.92205 23.5954 6.56643 25.2039 8.6668C25.6933 9.30734 24.7093 11.4694 24.2149 12.109L12.9443 26.6971C12.2759 27.5626 10.4959 28.783 9.44194 28.4812C7.08615 27.809 5.07848 26.2578 3.8336 24.1479C3.27764 23.2067 4.00761 21.1739 4.67598 20.3084L15.9466 5.72026C16.4404 5.08149 18.2849 3.58273 19.0283 3.89609Z" fill="#B0B721"/>
<path d="M18.8117 4.46945C21.1377 5.44797 23.1681 7.01659 24.7021 9.02024C25.1709 9.63152 24.2316 11.6945 23.7609 12.3043L13.0076 26.2225C12.3707 27.0478 10.669 28.2108 9.66586 27.9246C7.41841 27.2836 5.50307 25.8037 4.31558 23.7908C3.78694 22.8915 4.48168 20.9536 5.11855 20.1283L15.8719 6.21009C16.3434 5.60088 18.1025 4.17057 18.8117 4.46945Z" fill="#CADC31"/>
<path d="M15.0653 23.7616L16.275 23.9342C16.3764 23.9491 16.4799 23.9367 16.5749 23.8983C16.6699 23.8598 16.753 23.7967 16.8154 23.7154C16.8273 23.7001 16.8355 23.6823 16.8394 23.6634C16.8433 23.6444 16.8427 23.6248 16.8378 23.6061C16.8329 23.5874 16.8238 23.5701 16.8111 23.5555C16.7984 23.5409 16.7825 23.5294 16.7647 23.5219L15.6185 23.049L15.0653 23.7616Z" fill="#B0B721"/>
<path d="M6.98116 17.5165L6.50764 16.3885C6.46839 16.2953 6.45443 16.1934 6.46715 16.093C6.47987 15.9927 6.51883 15.8975 6.58009 15.817C6.59128 15.8004 6.60626 15.7867 6.62381 15.777C6.64135 15.7674 6.66095 15.762 6.68097 15.7614C6.70099 15.7609 6.72087 15.7651 6.73894 15.7737C6.75702 15.7823 6.77278 15.7951 6.78491 15.8111L7.53032 16.8059L6.98116 17.5165Z" fill="#B0B721"/>
<path d="M19.0988 17.7788L19.159 17.6989C20.7329 15.6632 22.1806 13.5323 22.1806 13.5323C21.4334 14.0088 20.7353 14.5582 20.0967 15.1726L18.5551 17.1688C18.7263 17.3805 18.9103 17.5817 19.0988 17.7788Z" fill="#45474A"/>
<path d="M18.3715 17.4025L16.9358 19.2631C16.5399 20.0472 16.1886 20.8531 15.8837 21.677C15.8837 21.677 17.3773 19.9739 18.862 18.0814C18.6878 17.8638 18.5279 17.6355 18.3715 17.4025Z" fill="#45474A"/>
<path d="M11.7529 12.1026L11.8131 12.0227C13.3902 9.98934 15.0863 8.05069 15.0863 8.05069C14.8132 8.89325 14.4571 9.70664 14.0234 10.4789L12.4804 12.4753C12.2299 12.3606 11.9885 12.2388 11.7529 12.1026Z" fill="#45474A"/>
<path d="M12.2984 12.7102L10.8619 14.5702C10.2035 15.1518 9.51274 15.6957 8.79289 16.1991C8.79289 16.1991 10.0613 14.3228 11.5213 12.4116C11.7732 12.5212 12.0341 12.6188 12.2984 12.7102Z" fill="#45474A"/>
<path d="M16.278 19.6342L14.7644 23.1709C14.7644 23.1709 13.0904 23.672 10.3294 21.5379C7.56834 19.4038 7.6294 17.6586 7.6294 17.6586L10.6714 15.3035C11.4297 16.2253 12.275 17.072 13.1957 17.8317C14.1629 18.5299 15.1951 19.1336 16.278 19.6342ZM15.9491 8.96375C16.9387 9.4246 17.8815 9.97979 18.7646 10.6216C19.6085 11.3139 20.3838 12.086 21.0796 12.927C21.1036 12.956 21.1335 12.9793 21.1675 12.9953C21.2014 13.0113 21.2385 13.0196 21.276 13.0197C21.3135 13.0197 21.3506 13.0115 21.3846 12.9955C21.4186 12.9796 21.4486 12.9564 21.4726 12.9275L23.6422 10.3122C23.6714 10.2769 23.6907 10.2344 23.6979 10.1892C23.7051 10.144 23.7 10.0976 23.6832 10.055C23.1213 8.96904 22.3042 8.03574 21.302 7.33526C20.3713 6.54218 19.262 5.98702 18.0693 5.7175C18.0238 5.71179 17.9775 5.71847 17.9355 5.73683C17.8934 5.75519 17.8571 5.78455 17.8304 5.82182L15.8451 8.58477C15.8235 8.61551 15.809 8.65062 15.8026 8.6876C15.7962 8.72458 15.798 8.76252 15.808 8.79872C15.8179 8.83492 15.8357 8.86848 15.8601 8.897C15.8845 8.92553 15.9149 8.94832 15.9491 8.96375Z" fill="#45474A"/>
<path d="M11.3509 27.5884C11.0465 27.4712 10.7169 27.4354 10.3944 27.4845C10.072 27.5336 9.76796 27.6659 9.51226 27.8683C9.77391 27.9112 10.0403 27.9163 10.3034 27.8835C10.6644 27.8334 11.0168 27.7341 11.3509 27.5884V27.5884Z" fill="white"/>
<path d="M4.21632 22.0764C4.40667 22.3413 4.52465 22.6513 4.55863 22.9757C4.5926 23.3001 4.54139 23.6278 4.41005 23.9264C4.30236 23.6841 4.22998 23.4276 4.19512 23.1647C4.15256 22.8027 4.15969 22.4365 4.21632 22.0764Z" fill="white"/>
<path d="M24.4433 8.54827C24.6182 8.81948 24.7233 9.12969 24.7495 9.45134C24.7501 9.53704 24.7647 9.62205 24.7927 9.70304C24.8036 9.7291 24.8196 9.75271 24.8398 9.77245C24.86 9.79218 24.884 9.80764 24.9103 9.8179C24.9414 9.53841 24.9124 9.25548 24.825 8.98817C24.7377 8.72085 24.5941 8.47535 24.4039 8.26818L24.3997 8.27377C24.3367 8.35903 24.3938 8.46596 24.4433 8.54827Z" fill="#F3482A"/>
<path d="M19.3411 4.60146C19.0337 4.50157 18.7062 4.47941 18.3881 4.53697C18.3051 4.55779 18.2193 4.56503 18.134 4.55841C18.1051 4.55452 18.0772 4.54469 18.0522 4.52953C18.0272 4.51436 18.0057 4.49419 17.9888 4.47029C18.2513 4.36954 18.5324 4.32625 18.8131 4.34332C19.0937 4.36039 19.3675 4.43744 19.6158 4.56927L19.6122 4.57406C19.5478 4.65952 19.4271 4.62865 19.3411 4.60146Z" fill="#F3482A"/>
<path d="M7.82949 27.022L5.65351 25.34C5.39735 25.1405 5.1183 24.9723 4.82228 24.8389C4.95231 25.2428 5.20091 25.5981 5.53572 25.8587L7.35657 27.2657C7.6923 27.5249 8.09827 27.6772 8.52168 27.7026C8.31892 27.449 8.08654 27.2205 7.82949 27.022Z" fill="#45474A"/>
</svg>
