<svg width="19" height="18" viewBox="0 0 19 18" fill="none" xmlns="http://www.w3.org/2000/svg">
<path d="M18.8231 7.11292C18.8231 6.84625 18.6231 6.68187 18.2231 6.61987L12.8461 5.83789L10.4361 0.964966C10.3028 0.672299 10.1277 0.525879 9.91107 0.525879C9.69441 0.525879 9.51938 0.672299 9.38605 0.964966L6.97504 5.83789L1.59808 6.61987C1.19808 6.68654 0.998047 6.85091 0.998047 7.11292C1.02164 7.31122 1.11697 7.49408 1.26605 7.62695L5.16608 11.4189L4.24506 16.7739C4.23369 16.8451 4.22668 16.9169 4.22406 16.9889C4.21942 17.1243 4.25871 17.2576 4.33606 17.3689C4.3747 17.421 4.42584 17.4624 4.48474 17.4895C4.54364 17.5166 4.60843 17.5285 4.6731 17.5239C4.82453 17.5177 4.97196 17.4736 5.10205 17.3959L9.91107 14.8679L14.7201 17.3959C14.8495 17.4751 14.9973 17.5193 15.149 17.5239C15.2122 17.5276 15.2753 17.5152 15.3324 17.4882C15.3895 17.4611 15.4389 17.4201 15.4761 17.3689C15.5531 17.2575 15.5924 17.1243 15.5881 16.9889C15.5891 16.9171 15.5855 16.8453 15.5771 16.7739L14.6561 11.4189L18.5441 7.62695C18.7005 7.49849 18.8005 7.31405 18.8231 7.11292Z" fill="#CADC31"/>
</svg>
