<svg width="29" height="28" viewBox="0 0 29 28" fill="none" xmlns="http://www.w3.org/2000/svg">
<path d="M14.4 1.84106L18.386 9.91606L27.3 11.2161L20.85 17.4981L22.372 26.3731L14.4 22.1841L6.428 26.3771L7.95 17.5021L1.5 11.2191L10.414 9.91906L14.4 1.84106Z" stroke="black" stroke-width="2" stroke-linecap="round" stroke-linejoin="round"/>
<path d="M14.741 16.1271L16.155 14.7271C16.2013 14.68 16.2293 14.6179 16.2343 14.5521C16.2392 14.4862 16.2207 14.4207 16.182 14.3671C16.1605 14.3349 16.1319 14.3081 16.0984 14.2887C16.0648 14.2693 16.0273 14.2578 15.9887 14.2552C15.95 14.2526 15.9113 14.2589 15.8755 14.2736C15.8396 14.2883 15.8077 14.3111 15.782 14.3401L14.368 15.7541L12.954 14.3401C12.9284 14.3111 12.8964 14.2883 12.8606 14.2736C12.8248 14.2589 12.786 14.2526 12.7474 14.2552C12.7087 14.2578 12.6712 14.2693 12.6377 14.2887C12.6042 14.3081 12.5755 14.3349 12.554 14.3671C12.5153 14.4207 12.4968 14.4862 12.5018 14.5521C12.5067 14.6179 12.5348 14.68 12.581 14.7271L13.995 16.1271L12.581 17.5271C12.5348 17.5743 12.5067 17.6363 12.5018 17.7022C12.4968 17.7681 12.5153 17.8336 12.554 17.8871C12.5755 17.9193 12.6042 17.9462 12.6377 17.9656C12.6712 17.985 12.7087 17.9964 12.7474 17.999C12.786 18.0017 12.8248 17.9954 12.8606 17.9806C12.8964 17.9659 12.9284 17.9432 12.954 17.9141L14.368 16.5001L15.782 17.9141C15.8077 17.9432 15.8396 17.9659 15.8755 17.9806C15.9113 17.9954 15.95 18.0017 15.9887 17.999C16.0273 17.9964 16.0648 17.985 16.0984 17.9656C16.1319 17.9462 16.1605 17.9193 16.182 17.8871C16.2207 17.8336 16.2392 17.7681 16.2343 17.7022C16.2293 17.6363 16.2013 17.5743 16.155 17.5271L14.741 16.1271Z" fill="black" stroke="black"/>
</svg>
