<svg width="29" height="26" viewBox="0 0 29 26" fill="none" xmlns="http://www.w3.org/2000/svg">
<path d="M27.7892 22.0301L16.0782 1.73002C15.8602 1.37789 15.5114 1.12671 15.1083 1.03165C14.7051 0.93659 14.2807 1.00546 13.9283 1.22306C13.7226 1.35055 13.5493 1.52408 13.4222 1.73002L1.71031 22.0301C1.60766 22.2075 1.54093 22.4035 1.51402 22.6067C1.48711 22.81 1.5004 23.0166 1.55333 23.2146C1.60626 23.4127 1.6979 23.5984 1.82261 23.7611C1.94733 23.9239 2.10288 24.0605 2.28038 24.1631C2.51106 24.2963 2.77182 24.3682 3.03819 24.372H26.4623C26.6673 24.369 26.8699 24.3257 27.0582 24.2444C27.2465 24.1631 27.4168 24.0455 27.5597 23.8983C27.7025 23.7511 27.8149 23.5772 27.8905 23.3865C27.9661 23.1958 28.0035 22.9921 28.0003 22.787C27.9955 22.5209 27.9227 22.2604 27.7892 22.0301Z" stroke="black" stroke-width="1.8" stroke-miterlimit="10" stroke-linecap="round"/>
<path d="M14.75 21.249C14.336 21.249 13.939 21.0846 13.6462 20.7918C13.3535 20.4991 13.189 20.1021 13.189 19.688C13.189 19.274 13.3535 18.877 13.6462 18.5842C13.939 18.2915 14.336 18.127 14.75 18.127C15.164 18.127 15.561 18.2915 15.8538 18.5842C16.1465 18.877 16.311 19.274 16.311 19.688C16.311 20.1021 16.1465 20.4991 15.8538 20.7918C15.561 21.0846 15.164 21.249 14.75 21.249Z" fill="black"/>
<path d="M16.3101 15.002C16.3101 15.4161 16.1457 15.8132 15.853 16.1061C15.5603 16.399 15.1631 16.5638 14.749 16.564C14.3348 16.564 13.9375 16.3994 13.6445 16.1065C13.3516 15.8136 13.187 15.4163 13.187 15.002V8.755C13.187 8.34074 13.3516 7.94344 13.6445 7.65051C13.9375 7.35758 14.3348 7.19299 14.749 7.19299C15.1631 7.19326 15.5603 7.35798 15.853 7.65088C16.1457 7.94378 16.3101 8.34091 16.3101 8.755V15.002Z" fill="black"/>
</svg>
